solid OpenSCAD_Model
  facet normal -0.866025 -0.5 0
    outer loop
      vertex -21.2331 -10.8316 -2.75
      vertex -19.997 -12.9726 -2.75
      vertex -21.2331 -10.8316 2.75
    endloop
  endfacet
  facet normal -0.866025 -0.5 0
    outer loop
      vertex -21.2331 -10.8316 2.75
      vertex -19.997 -12.9726 -2.75
      vertex -19.997 -12.9726 2.75
    endloop
  endfacet
  facet normal 0 0 -1
    outer loop
      vertex -21.2331 -10.8316 -2.75
      vertex -20.9747 -8.37305 -2.75
      vertex -19.997 -12.9726 -2.75
    endloop
  endfacet
  facet normal 0 0 -1
    outer loop
      vertex -19.997 -12.9726 -2.75
      vertex -20.9747 -8.37305 -2.75
      vertex -19.8098 -6.35536 -2.75
    endloop
  endfacet
  facet normal 0 0 -1
    outer loop
      vertex -18.4205 -8.09474 -2.75
      vertex -19.8098 -6.35536 -2.75
      vertex -10.5769 -0.851447 -2.75
    endloop
  endfacet
  facet normal 0 0 -1
    outer loop
      vertex -4.55108 9.5856 -2.75
      vertex -4.40099 20.3334 -2.75
      vertex -3.23607 22.3511 -2.75
    endloop
  endfacet
  facet normal 0 0 -1
    outer loop
      vertex -2.2 20 -2.75
      vertex -3.23607 22.3511 -2.75
      vertex -1.23607 23.8042 -2.75
    endloop
  endfacet
  facet normal 0 0 -1
    outer loop
      vertex -0.679837 22.0923 -2.75
      vertex -1.23607 23.8042 -2.75
      vertex 1.23607 23.8042 -2.75
    endloop
  endfacet
  facet normal 0 0 -1
    outer loop
      vertex 1.77984 21.2931 -2.75
      vertex 1.23607 23.8042 -2.75
      vertex 3.23607 22.3511 -2.75
    endloop
  endfacet
  facet normal 0 0 -1
    outer loop
      vertex 1.77984 18.7069 -2.75
      vertex 3.23607 22.3511 -2.75
      vertex 4.40099 20.3334 -2.75
    endloop
  endfacet
  facet normal 0 0 -1
    outer loop
      vertex -10.5769 -0.851447 -2.75
      vertex 4.40099 20.3334 -2.75
      vertex 4.55108 9.5856 -2.75
    endloop
  endfacet
  facet normal 0 0 -1
    outer loop
      vertex -2.2 20 -2.75
      vertex -1.23607 23.8042 -2.75
      vertex -1.77984 21.2931 -2.75
    endloop
  endfacet
  facet normal 0 0 -1
    outer loop
      vertex 4.5 0 -2.75
      vertex 4.55108 9.5856 -2.75
      vertex 10.5769 -0.851447 -2.75
    endloop
  endfacet
  facet normal 0 0 -1
    outer loop
      vertex -15.4088 -13.9781 -2.75
      vertex -16.2205 -11.9053 -2.75
      vertex -6.02583 -8.73415 -2.75
    endloop
  endfacet
  facet normal 0 0 -1
    outer loop
      vertex 18.4205 -8.09474 -2.75
      vertex 19.8098 -6.35536 -2.75
      vertex 20.9747 -8.37305 -2.75
    endloop
  endfacet
  facet normal 0 0 -1
    outer loop
      vertex 19.3303 -9.10518 -2.75
      vertex 20.9747 -8.37305 -2.75
      vertex 21.2331 -10.8316 -2.75
    endloop
  endfacet
  facet normal 0 0 -1
    outer loop
      vertex 17.5505 -12.1879 -2.75
      vertex 21.2331 -10.8316 -2.75
      vertex 19.997 -12.9726 -2.75
    endloop
  endfacet
  facet normal 0 0 -1
    outer loop
      vertex -6.02583 -8.73415 -2.75
      vertex 19.8098 -6.35536 -2.75
      vertex 6.02583 -8.73415 -2.75
    endloop
  endfacet
  facet normal 0 0 -1
    outer loop
      vertex 10.5769 -0.851447 -2.75
      vertex 19.8098 -6.35536 -2.75
      vertex -6.02583 -8.73415 -2.75
    endloop
  endfacet
  facet normal 0 0 -1
    outer loop
      vertex -15.3107 -10.8948 -2.75
      vertex -6.02583 -8.73415 -2.75
      vertex -16.2205 -11.9053 -2.75
    endloop
  endfacet
  facet normal 0 0 -1
    outer loop
      vertex -18.7926 -11.6349 -2.75
      vertex -19.997 -12.9726 -2.75
      vertex -19.4724 -10.4574 -2.75
    endloop
  endfacet
  facet normal 0 0 -1
    outer loop
      vertex -19.997 -12.9726 -2.75
      vertex -15.4088 -13.9781 -2.75
      vertex -17.7386 -13.9781 -2.75
    endloop
  endfacet
  facet normal 0 0 -1
    outer loop
      vertex -19.997 -12.9726 -2.75
      vertex -19.8098 -6.35536 -2.75
      vertex -19.3303 -9.10518 -2.75
    endloop
  endfacet
  facet normal 0 0 -1
    outer loop
      vertex -4.5 0 -2.75
      vertex -15.1686 -9.54259 -2.75
      vertex -15.8484 -8.36508 -2.75
    endloop
  endfacet
  facet normal 0 0 -1
    outer loop
      vertex -19.997 -12.9726 -2.75
      vertex -19.3303 -9.10518 -2.75
      vertex -19.4724 -10.4574 -2.75
    endloop
  endfacet
  facet normal 0 0 -1
    outer loop
      vertex -17.5505 -12.1879 -2.75
      vertex -19.997 -12.9726 -2.75
      vertex -18.7926 -11.6349 -2.75
    endloop
  endfacet
  facet normal 0 0 -1
    outer loop
      vertex -16.2205 -11.9053 -2.75
      vertex -19.997 -12.9726 -2.75
      vertex -17.5505 -12.1879 -2.75
    endloop
  endfacet
  facet normal 0 0 -1
    outer loop
      vertex -15.4088 -13.9781 -2.75
      vertex -19.997 -12.9726 -2.75
      vertex -16.2205 -11.9053 -2.75
    endloop
  endfacet
  facet normal 0 0 -1
    outer loop
      vertex -15.3107 -10.8948 -2.75
      vertex 10.5769 -0.851447 -2.75
      vertex -6.02583 -8.73415 -2.75
    endloop
  endfacet
  facet normal 0 0 -1
    outer loop
      vertex -3.64058 2.64503 -2.75
      vertex 4.55108 9.5856 -2.75
      vertex -1.39058 4.27975 -2.75
    endloop
  endfacet
  facet normal 0 0 -1
    outer loop
      vertex -4.5 0 -2.75
      vertex -15.8484 -8.36508 -2.75
      vertex -3.64058 2.64503 -2.75
    endloop
  endfacet
  facet normal 0 0 -1
    outer loop
      vertex -18.4205 -8.09474 -2.75
      vertex -10.5769 -0.851447 -2.75
      vertex -17.0905 -7.81205 -2.75
    endloop
  endfacet
  facet normal 0 0 -1
    outer loop
      vertex -19.3303 -9.10518 -2.75
      vertex -19.8098 -6.35536 -2.75
      vertex -18.4205 -8.09474 -2.75
    endloop
  endfacet
  facet normal 0 0 -1
    outer loop
      vertex -4.5 0 -2.75
      vertex -15.3107 -10.8948 -2.75
      vertex -15.1686 -9.54259 -2.75
    endloop
  endfacet
  facet normal 0 0 -1
    outer loop
      vertex 3.64058 -2.64503 -2.75
      vertex 10.5769 -0.851447 -2.75
      vertex 1.39058 -4.27975 -2.75
    endloop
  endfacet
  facet normal 0 0 -1
    outer loop
      vertex -15.3107 -10.8948 -2.75
      vertex -4.5 0 -2.75
      vertex -3.64058 -2.64503 -2.75
    endloop
  endfacet
  facet normal 0 0 -1
    outer loop
      vertex -15.3107 -10.8948 -2.75
      vertex -3.64058 -2.64503 -2.75
      vertex -1.39058 -4.27975 -2.75
    endloop
  endfacet
  facet normal 0 0 -1
    outer loop
      vertex -15.3107 -10.8948 -2.75
      vertex -1.39058 -4.27975 -2.75
      vertex 1.39058 -4.27975 -2.75
    endloop
  endfacet
  facet normal 0 0 -1
    outer loop
      vertex -15.3107 -10.8948 -2.75
      vertex 1.39058 -4.27975 -2.75
      vertex 10.5769 -0.851447 -2.75
    endloop
  endfacet
  facet normal 0 0 -1
    outer loop
      vertex 4.5 0 -2.75
      vertex 10.5769 -0.851447 -2.75
      vertex 3.64058 -2.64503 -2.75
    endloop
  endfacet
  facet normal 0 0 -1
    outer loop
      vertex 3.64058 2.64503 -2.75
      vertex 4.55108 9.5856 -2.75
      vertex 4.5 0 -2.75
    endloop
  endfacet
  facet normal 0 0 -1
    outer loop
      vertex -1.39058 4.27975 -2.75
      vertex 4.55108 9.5856 -2.75
      vertex 1.39058 4.27975 -2.75
    endloop
  endfacet
  facet normal 0 0 -1
    outer loop
      vertex 1.39058 4.27975 -2.75
      vertex 4.55108 9.5856 -2.75
      vertex 3.64058 2.64503 -2.75
    endloop
  endfacet
  facet normal 0 0 -1
    outer loop
      vertex -17.0905 -7.81205 -2.75
      vertex -10.5769 -0.851447 -2.75
      vertex -15.8484 -8.36508 -2.75
    endloop
  endfacet
  facet normal 0 0 -1
    outer loop
      vertex -10.5769 -0.851447 -2.75
      vertex 4.55108 9.5856 -2.75
      vertex -3.64058 2.64503 -2.75
    endloop
  endfacet
  facet normal 0 0 -1
    outer loop
      vertex -10.5769 -0.851447 -2.75
      vertex -3.64058 2.64503 -2.75
      vertex -15.8484 -8.36508 -2.75
    endloop
  endfacet
  facet normal 0 0 -1
    outer loop
      vertex -4.55108 9.5856 -2.75
      vertex -3.23607 22.3511 -2.75
      vertex -2.2 20 -2.75
    endloop
  endfacet
  facet normal 0 0 -1
    outer loop
      vertex -1.77984 18.7069 -2.75
      vertex -4.55108 9.5856 -2.75
      vertex -2.2 20 -2.75
    endloop
  endfacet
  facet normal 0 0 -1
    outer loop
      vertex 15.1686 -9.54259 -2.75
      vertex 6.02583 -8.73415 -2.75
      vertex 15.8484 -8.36508 -2.75
    endloop
  endfacet
  facet normal 0 0 -1
    outer loop
      vertex -0.679837 22.0923 -2.75
      vertex 1.23607 23.8042 -2.75
      vertex 0.679837 22.0923 -2.75
    endloop
  endfacet
  facet normal 0 0 -1
    outer loop
      vertex 1.77984 21.2931 -2.75
      vertex 3.23607 22.3511 -2.75
      vertex 2.2 20 -2.75
    endloop
  endfacet
  facet normal 0 0 -1
    outer loop
      vertex -10.5769 -0.851447 -2.75
      vertex 0.679837 17.9077 -2.75
      vertex 4.40099 20.3334 -2.75
    endloop
  endfacet
  facet normal 0 0 -1
    outer loop
      vertex 2.2 20 -2.75
      vertex 3.23607 22.3511 -2.75
      vertex 1.77984 18.7069 -2.75
    endloop
  endfacet
  facet normal 0 0 -1
    outer loop
      vertex 0.679837 17.9077 -2.75
      vertex 1.77984 18.7069 -2.75
      vertex 4.40099 20.3334 -2.75
    endloop
  endfacet
  facet normal 0 0 -1
    outer loop
      vertex 0.679837 22.0923 -2.75
      vertex 1.23607 23.8042 -2.75
      vertex 1.77984 21.2931 -2.75
    endloop
  endfacet
  facet normal 0 0 -1
    outer loop
      vertex 0.679837 17.9077 -2.75
      vertex -4.55108 9.5856 -2.75
      vertex -0.679837 17.9077 -2.75
    endloop
  endfacet
  facet normal 0 0 -1
    outer loop
      vertex 0.679837 17.9077 -2.75
      vertex -10.5769 -0.851447 -2.75
      vertex -4.55108 9.5856 -2.75
    endloop
  endfacet
  facet normal 0 0 -1
    outer loop
      vertex -1.77984 21.2931 -2.75
      vertex -1.23607 23.8042 -2.75
      vertex -0.679837 22.0923 -2.75
    endloop
  endfacet
  facet normal 0 0 -1
    outer loop
      vertex -0.679837 17.9077 -2.75
      vertex -4.55108 9.5856 -2.75
      vertex -1.77984 18.7069 -2.75
    endloop
  endfacet
  facet normal 0 0 -1
    outer loop
      vertex 18.7926 -11.6349 -2.75
      vertex 21.2331 -10.8316 -2.75
      vertex 17.5505 -12.1879 -2.75
    endloop
  endfacet
  facet normal 0 0 -1
    outer loop
      vertex 16.2205 -11.9053 -2.75
      vertex 17.5505 -12.1879 -2.75
      vertex 19.997 -12.9726 -2.75
    endloop
  endfacet
  facet normal 0 0 -1
    outer loop
      vertex 19.3303 -9.10518 -2.75
      vertex 21.2331 -10.8316 -2.75
      vertex 19.4724 -10.4574 -2.75
    endloop
  endfacet
  facet normal 0 0 -1
    outer loop
      vertex 18.4205 -8.09474 -2.75
      vertex 20.9747 -8.37305 -2.75
      vertex 19.3303 -9.10518 -2.75
    endloop
  endfacet
  facet normal 0 0 -1
    outer loop
      vertex 17.0905 -7.81205 -2.75
      vertex 19.8098 -6.35536 -2.75
      vertex 18.4205 -8.09474 -2.75
    endloop
  endfacet
  facet normal 0 0 -1
    outer loop
      vertex 15.8484 -8.36508 -2.75
      vertex 6.02583 -8.73415 -2.75
      vertex 17.0905 -7.81205 -2.75
    endloop
  endfacet
  facet normal 0 0 -1
    outer loop
      vertex 6.02583 -8.73415 -2.75
      vertex 19.8098 -6.35536 -2.75
      vertex 17.0905 -7.81205 -2.75
    endloop
  endfacet
  facet normal 0 0 -1
    outer loop
      vertex 19.4724 -10.4574 -2.75
      vertex 21.2331 -10.8316 -2.75
      vertex 18.7926 -11.6349 -2.75
    endloop
  endfacet
  facet normal 0 0 -1
    outer loop
      vertex 6.02583 -8.73415 -2.75
      vertex 15.1686 -9.54259 -2.75
      vertex 15.3107 -10.8948 -2.75
    endloop
  endfacet
  facet normal 0 0 -1
    outer loop
      vertex 6.02583 -8.73415 -2.75
      vertex 15.3107 -10.8948 -2.75
      vertex 16.2205 -11.9053 -2.75
    endloop
  endfacet
  facet normal 0 0 -1
    outer loop
      vertex 16.2205 -11.9053 -2.75
      vertex 19.997 -12.9726 -2.75
      vertex 17.7386 -13.9781 -2.75
    endloop
  endfacet
  facet normal 0 0 -1
    outer loop
      vertex 6.02583 -8.73415 -2.75
      vertex 16.2205 -11.9053 -2.75
      vertex 17.7386 -13.9781 -2.75
    endloop
  endfacet
  facet normal 0 0 -1
    outer loop
      vertex 6.02583 -8.73415 -2.75
      vertex 17.7386 -13.9781 -2.75
      vertex 15.4088 -13.9781 -2.75
    endloop
  endfacet
  facet normal -0.994522 0.104528 0
    outer loop
      vertex -21.2331 -10.8316 -2.75
      vertex -21.2331 -10.8316 2.75
      vertex -20.9747 -8.37305 -2.75
    endloop
  endfacet
  facet normal -0.994522 0.104528 0
    outer loop
      vertex -20.9747 -8.37305 -2.75
      vertex -21.2331 -10.8316 2.75
      vertex -20.9747 -8.37305 2.75
    endloop
  endfacet
  facet normal 0 0 1
    outer loop
      vertex -20.9747 -8.37305 2.75
      vertex -21.2331 -10.8316 2.75
      vertex -19.997 -12.9726 2.75
    endloop
  endfacet
  facet normal 0 0 1
    outer loop
      vertex -19.4724 -10.4574 2.75
      vertex -20.9747 -8.37305 2.75
      vertex -17.7386 -13.9781 2.75
    endloop
  endfacet
  facet normal 0 0 1
    outer loop
      vertex -17.7386 -13.9781 2.75
      vertex -20.9747 -8.37305 2.75
      vertex -19.997 -12.9726 2.75
    endloop
  endfacet
  facet normal 0 0 1
    outer loop
      vertex 17.7386 -13.9781 2.75
      vertex 6.02583 -8.73415 2.75
      vertex 15.4088 -13.9781 2.75
    endloop
  endfacet
  facet normal 0 0 1
    outer loop
      vertex 16.2205 -11.9053 2.75
      vertex 6.02583 -8.73415 2.75
      vertex 17.7386 -13.9781 2.75
    endloop
  endfacet
  facet normal 0 0 1
    outer loop
      vertex 6.02583 -8.73415 2.75
      vertex 15.8484 -8.36508 2.75
      vertex -15.8484 -8.36508 2.75
    endloop
  endfacet
  facet normal 0 0 1
    outer loop
      vertex -16.2205 -11.9053 2.75
      vertex -17.5505 -12.1879 2.75
      vertex -15.4088 -13.9781 2.75
    endloop
  endfacet
  facet normal 0 0 1
    outer loop
      vertex 0.648936 -1.99722 2.75
      vertex -20.9747 -8.37305 2.75
      vertex 10.5769 -0.851447 2.75
    endloop
  endfacet
  facet normal 0 0 1
    outer loop
      vertex -10.5769 -0.851447 2.75
      vertex -20.9747 -8.37305 2.75
      vertex 4.55108 9.5856 2.75
    endloop
  endfacet
  facet normal 0 0 1
    outer loop
      vertex -10.5769 -0.851447 2.75
      vertex -19.8098 -6.35536 2.75
      vertex -20.9747 -8.37305 2.75
    endloop
  endfacet
  facet normal 0 0 1
    outer loop
      vertex -19.3303 -9.10518 2.75
      vertex -18.4205 -8.09474 2.75
      vertex -20.9747 -8.37305 2.75
    endloop
  endfacet
  facet normal 0 0 1
    outer loop
      vertex -3.23607 22.3511 2.75
      vertex -4.40099 20.3334 2.75
      vertex -1.23607 23.8042 2.75
    endloop
  endfacet
  facet normal 0 0 1
    outer loop
      vertex 4.40099 20.3334 2.75
      vertex -4.55108 9.5856 2.75
      vertex 4.55108 9.5856 2.75
    endloop
  endfacet
  facet normal 0 0 1
    outer loop
      vertex -4.55108 9.5856 2.75
      vertex -10.5769 -0.851447 2.75
      vertex 4.55108 9.5856 2.75
    endloop
  endfacet
  facet normal 0 0 1
    outer loop
      vertex -19.4724 -10.4574 2.75
      vertex -19.3303 -9.10518 2.75
      vertex -20.9747 -8.37305 2.75
    endloop
  endfacet
  facet normal 0 0 1
    outer loop
      vertex -18.7926 -11.6349 2.75
      vertex -19.4724 -10.4574 2.75
      vertex -17.7386 -13.9781 2.75
    endloop
  endfacet
  facet normal 0 0 1
    outer loop
      vertex -0.679837 22.0923 2.75
      vertex 0.679837 22.0923 2.75
      vertex 1.23607 23.8042 2.75
    endloop
  endfacet
  facet normal 0 0 1
    outer loop
      vertex -15.8484 -8.36508 2.75
      vertex -15.1686 -9.54259 2.75
      vertex -6.02583 -8.73415 2.75
    endloop
  endfacet
  facet normal 0 0 1
    outer loop
      vertex 10.5769 -0.851447 2.75
      vertex -20.9747 -8.37305 2.75
      vertex -18.4205 -8.09474 2.75
    endloop
  endfacet
  facet normal 0 0 1
    outer loop
      vertex 10.5769 -0.851447 2.75
      vertex -17.0905 -7.81205 2.75
      vertex 19.8098 -6.35536 2.75
    endloop
  endfacet
  facet normal 0 0 1
    outer loop
      vertex 10.5769 -0.851447 2.75
      vertex -18.4205 -8.09474 2.75
      vertex -17.0905 -7.81205 2.75
    endloop
  endfacet
  facet normal 0 0 1
    outer loop
      vertex -17.0905 -7.81205 2.75
      vertex -15.8484 -8.36508 2.75
      vertex 19.8098 -6.35536 2.75
    endloop
  endfacet
  facet normal 0 0 1
    outer loop
      vertex -6.02583 -8.73415 2.75
      vertex -15.1686 -9.54259 2.75
      vertex -15.4088 -13.9781 2.75
    endloop
  endfacet
  facet normal 0 0 1
    outer loop
      vertex -15.1686 -9.54259 2.75
      vertex -15.3107 -10.8948 2.75
      vertex -15.4088 -13.9781 2.75
    endloop
  endfacet
  facet normal 0 0 1
    outer loop
      vertex -15.3107 -10.8948 2.75
      vertex -16.2205 -11.9053 2.75
      vertex -15.4088 -13.9781 2.75
    endloop
  endfacet
  facet normal 0 0 1
    outer loop
      vertex -15.4088 -13.9781 2.75
      vertex -17.5505 -12.1879 2.75
      vertex -17.7386 -13.9781 2.75
    endloop
  endfacet
  facet normal 0 0 1
    outer loop
      vertex -17.5505 -12.1879 2.75
      vertex -18.7926 -11.6349 2.75
      vertex -17.7386 -13.9781 2.75
    endloop
  endfacet
  facet normal 0 0 1
    outer loop
      vertex 16.2205 -11.9053 2.75
      vertex 15.3107 -10.8948 2.75
      vertex 6.02583 -8.73415 2.75
    endloop
  endfacet
  facet normal 0 0 1
    outer loop
      vertex 1.77984 21.2931 2.75
      vertex 2.2 20 2.75
      vertex 3.23607 22.3511 2.75
    endloop
  endfacet
  facet normal 0 0 1
    outer loop
      vertex -1.23607 23.8042 2.75
      vertex -1.77984 21.2931 2.75
      vertex 1.23607 23.8042 2.75
    endloop
  endfacet
  facet normal 0 0 1
    outer loop
      vertex -1.23607 23.8042 2.75
      vertex -2.2 20 2.75
      vertex -1.77984 21.2931 2.75
    endloop
  endfacet
  facet normal 0 0 1
    outer loop
      vertex -1.77984 21.2931 2.75
      vertex -0.679837 22.0923 2.75
      vertex 1.23607 23.8042 2.75
    endloop
  endfacet
  facet normal 0 0 1
    outer loop
      vertex 1.23607 23.8042 2.75
      vertex 0.679837 22.0923 2.75
      vertex 3.23607 22.3511 2.75
    endloop
  endfacet
  facet normal 0 0 1
    outer loop
      vertex 0.679837 22.0923 2.75
      vertex 1.77984 21.2931 2.75
      vertex 3.23607 22.3511 2.75
    endloop
  endfacet
  facet normal 0 0 1
    outer loop
      vertex 3.23607 22.3511 2.75
      vertex 2.2 20 2.75
      vertex 4.40099 20.3334 2.75
    endloop
  endfacet
  facet normal 0 0 1
    outer loop
      vertex 2.2 20 2.75
      vertex 1.77984 18.7069 2.75
      vertex 4.40099 20.3334 2.75
    endloop
  endfacet
  facet normal 0 0 1
    outer loop
      vertex -15.8484 -8.36508 2.75
      vertex -6.02583 -8.73415 2.75
      vertex 6.02583 -8.73415 2.75
    endloop
  endfacet
  facet normal 0 0 1
    outer loop
      vertex -0.648936 -1.99722 2.75
      vertex -1.69894 -1.23435 2.75
      vertex -20.9747 -8.37305 2.75
    endloop
  endfacet
  facet normal 0 0 1
    outer loop
      vertex -2.1 0 2.75
      vertex -20.9747 -8.37305 2.75
      vertex -1.69894 -1.23435 2.75
    endloop
  endfacet
  facet normal 0 0 1
    outer loop
      vertex -1.69894 1.23435 2.75
      vertex -20.9747 -8.37305 2.75
      vertex -2.1 0 2.75
    endloop
  endfacet
  facet normal 0 0 1
    outer loop
      vertex -0.648936 1.99722 2.75
      vertex 0.648936 1.99722 2.75
      vertex 4.55108 9.5856 2.75
    endloop
  endfacet
  facet normal 0 0 1
    outer loop
      vertex 4.55108 9.5856 2.75
      vertex -20.9747 -8.37305 2.75
      vertex -1.69894 1.23435 2.75
    endloop
  endfacet
  facet normal 0 0 1
    outer loop
      vertex 2.1 0 2.75
      vertex 1.69894 -1.23435 2.75
      vertex 10.5769 -0.851447 2.75
    endloop
  endfacet
  facet normal 0 0 1
    outer loop
      vertex 4.55108 9.5856 2.75
      vertex 0.648936 1.99722 2.75
      vertex 10.5769 -0.851447 2.75
    endloop
  endfacet
  facet normal 0 0 1
    outer loop
      vertex 0.648936 1.99722 2.75
      vertex 1.69894 1.23435 2.75
      vertex 10.5769 -0.851447 2.75
    endloop
  endfacet
  facet normal 0 0 1
    outer loop
      vertex 1.69894 1.23435 2.75
      vertex 2.1 0 2.75
      vertex 10.5769 -0.851447 2.75
    endloop
  endfacet
  facet normal 0 0 1
    outer loop
      vertex 17.5505 -12.1879 2.75
      vertex 16.2205 -11.9053 2.75
      vertex 19.997 -12.9726 2.75
    endloop
  endfacet
  facet normal 0 0 1
    outer loop
      vertex 1.69894 -1.23435 2.75
      vertex 0.648936 -1.99722 2.75
      vertex 10.5769 -0.851447 2.75
    endloop
  endfacet
  facet normal 0 0 1
    outer loop
      vertex -0.648936 -1.99722 2.75
      vertex -20.9747 -8.37305 2.75
      vertex 0.648936 -1.99722 2.75
    endloop
  endfacet
  facet normal 0 0 1
    outer loop
      vertex -1.69894 1.23435 2.75
      vertex -0.648936 1.99722 2.75
      vertex 4.55108 9.5856 2.75
    endloop
  endfacet
  facet normal 0 0 1
    outer loop
      vertex 15.1686 -9.54259 2.75
      vertex 15.8484 -8.36508 2.75
      vertex 6.02583 -8.73415 2.75
    endloop
  endfacet
  facet normal 0 0 1
    outer loop
      vertex 19.4724 -10.4574 2.75
      vertex 18.7926 -11.6349 2.75
      vertex 21.2331 -10.8316 2.75
    endloop
  endfacet
  facet normal 0 0 1
    outer loop
      vertex 18.4205 -8.09474 2.75
      vertex 19.3303 -9.10518 2.75
      vertex 20.9747 -8.37305 2.75
    endloop
  endfacet
  facet normal 0 0 1
    outer loop
      vertex 19.8098 -6.35536 2.75
      vertex -15.8484 -8.36508 2.75
      vertex 15.8484 -8.36508 2.75
    endloop
  endfacet
  facet normal 0 0 1
    outer loop
      vertex 19.8098 -6.35536 2.75
      vertex 17.0905 -7.81205 2.75
      vertex 20.9747 -8.37305 2.75
    endloop
  endfacet
  facet normal 0 0 1
    outer loop
      vertex 19.8098 -6.35536 2.75
      vertex 15.8484 -8.36508 2.75
      vertex 17.0905 -7.81205 2.75
    endloop
  endfacet
  facet normal 0 0 1
    outer loop
      vertex 17.0905 -7.81205 2.75
      vertex 18.4205 -8.09474 2.75
      vertex 20.9747 -8.37305 2.75
    endloop
  endfacet
  facet normal 0 0 1
    outer loop
      vertex 20.9747 -8.37305 2.75
      vertex 19.3303 -9.10518 2.75
      vertex 21.2331 -10.8316 2.75
    endloop
  endfacet
  facet normal 0 0 1
    outer loop
      vertex 19.3303 -9.10518 2.75
      vertex 19.4724 -10.4574 2.75
      vertex 21.2331 -10.8316 2.75
    endloop
  endfacet
  facet normal 0 0 1
    outer loop
      vertex 21.2331 -10.8316 2.75
      vertex 18.7926 -11.6349 2.75
      vertex 19.997 -12.9726 2.75
    endloop
  endfacet
  facet normal 0 0 1
    outer loop
      vertex 18.7926 -11.6349 2.75
      vertex 17.5505 -12.1879 2.75
      vertex 19.997 -12.9726 2.75
    endloop
  endfacet
  facet normal 0 0 1
    outer loop
      vertex 19.997 -12.9726 2.75
      vertex 16.2205 -11.9053 2.75
      vertex 17.7386 -13.9781 2.75
    endloop
  endfacet
  facet normal 0 0 1
    outer loop
      vertex 15.3107 -10.8948 2.75
      vertex 15.1686 -9.54259 2.75
      vertex 6.02583 -8.73415 2.75
    endloop
  endfacet
  facet normal 0 0 1
    outer loop
      vertex -4.40099 20.3334 2.75
      vertex -2.2 20 2.75
      vertex -1.23607 23.8042 2.75
    endloop
  endfacet
  facet normal 0 0 1
    outer loop
      vertex -4.40099 20.3334 2.75
      vertex -1.77984 18.7069 2.75
      vertex -2.2 20 2.75
    endloop
  endfacet
  facet normal 0 0 1
    outer loop
      vertex -4.40099 20.3334 2.75
      vertex -0.679837 17.9077 2.75
      vertex -1.77984 18.7069 2.75
    endloop
  endfacet
  facet normal 0 0 1
    outer loop
      vertex 0.679837 17.9077 2.75
      vertex 4.40099 20.3334 2.75
      vertex 1.77984 18.7069 2.75
    endloop
  endfacet
  facet normal 0 0 1
    outer loop
      vertex 0.679837 17.9077 2.75
      vertex -4.55108 9.5856 2.75
      vertex 4.40099 20.3334 2.75
    endloop
  endfacet
  facet normal 0 0 1
    outer loop
      vertex -0.679837 17.9077 2.75
      vertex -4.55108 9.5856 2.75
      vertex 0.679837 17.9077 2.75
    endloop
  endfacet
  facet normal 0 0 1
    outer loop
      vertex -4.40099 20.3334 2.75
      vertex -4.55108 9.5856 2.75
      vertex -0.679837 17.9077 2.75
    endloop
  endfacet
  facet normal -0.406737 -0.913545 0
    outer loop
      vertex -19.997 -12.9726 2.75
      vertex -19.997 -12.9726 -2.75
      vertex -17.7386 -13.9781 -2.75
    endloop
  endfacet
  facet normal -0.406737 -0.913545 0
    outer loop
      vertex -17.7386 -13.9781 2.75
      vertex -19.997 -12.9726 2.75
      vertex -17.7386 -13.9781 -2.75
    endloop
  endfacet
  facet normal -2.39274e-16 -1 0
    outer loop
      vertex -17.7386 -13.9781 2.75
      vertex -17.7386 -13.9781 -2.75
      vertex -15.4088 -13.9781 -2.75
    endloop
  endfacet
  facet normal -2.39274e-16 -1 0
    outer loop
      vertex -15.4088 -13.9781 2.75
      vertex -17.7386 -13.9781 2.75
      vertex -15.4088 -13.9781 -2.75
    endloop
  endfacet
  facet normal 0.487858 -0.872923 0
    outer loop
      vertex -6.02583 -8.73415 -2.75
      vertex -6.02583 -8.73415 2.75
      vertex -15.4088 -13.9781 2.75
    endloop
  endfacet
  facet normal 0.487858 -0.872923 0
    outer loop
      vertex -15.4088 -13.9781 -2.75
      vertex -6.02583 -8.73415 -2.75
      vertex -15.4088 -13.9781 2.75
    endloop
  endfacet
  facet normal 0 -1 0
    outer loop
      vertex 6.02583 -8.73415 -2.75
      vertex 6.02583 -8.73415 2.75
      vertex -6.02583 -8.73415 2.75
    endloop
  endfacet
  facet normal 0 -1 0
    outer loop
      vertex -6.02583 -8.73415 -2.75
      vertex 6.02583 -8.73415 -2.75
      vertex -6.02583 -8.73415 2.75
    endloop
  endfacet
  facet normal -0.487858 -0.872923 0
    outer loop
      vertex 15.4088 -13.9781 -2.75
      vertex 15.4088 -13.9781 2.75
      vertex 6.02583 -8.73415 2.75
    endloop
  endfacet
  facet normal -0.487858 -0.872923 0
    outer loop
      vertex 6.02583 -8.73415 -2.75
      vertex 15.4088 -13.9781 -2.75
      vertex 6.02583 -8.73415 2.75
    endloop
  endfacet
  facet normal -2.39274e-16 -1 0
    outer loop
      vertex 15.4088 -13.9781 2.75
      vertex 15.4088 -13.9781 -2.75
      vertex 17.7386 -13.9781 -2.75
    endloop
  endfacet
  facet normal -2.39274e-16 -1 0
    outer loop
      vertex 17.7386 -13.9781 2.75
      vertex 15.4088 -13.9781 2.75
      vertex 17.7386 -13.9781 -2.75
    endloop
  endfacet
  facet normal 0.406737 -0.913545 0
    outer loop
      vertex 17.7386 -13.9781 2.75
      vertex 17.7386 -13.9781 -2.75
      vertex 19.997 -12.9726 -2.75
    endloop
  endfacet
  facet normal 0.406737 -0.913545 0
    outer loop
      vertex 19.997 -12.9726 2.75
      vertex 17.7386 -13.9781 2.75
      vertex 19.997 -12.9726 -2.75
    endloop
  endfacet
  facet normal 0.866025 -0.5 0
    outer loop
      vertex 19.997 -12.9726 2.75
      vertex 19.997 -12.9726 -2.75
      vertex 21.2331 -10.8316 -2.75
    endloop
  endfacet
  facet normal 0.866025 -0.5 0
    outer loop
      vertex 21.2331 -10.8316 2.75
      vertex 19.997 -12.9726 2.75
      vertex 21.2331 -10.8316 -2.75
    endloop
  endfacet
  facet normal 0.994522 0.104528 0
    outer loop
      vertex 21.2331 -10.8316 -2.75
      vertex 20.9747 -8.37305 -2.75
      vertex 20.9747 -8.37305 2.75
    endloop
  endfacet
  facet normal 0.994522 0.104528 0
    outer loop
      vertex 21.2331 -10.8316 2.75
      vertex 21.2331 -10.8316 -2.75
      vertex 20.9747 -8.37305 2.75
    endloop
  endfacet
  facet normal 0.866025 0.5 0
    outer loop
      vertex 20.9747 -8.37305 -2.75
      vertex 19.8098 -6.35536 -2.75
      vertex 19.8098 -6.35536 2.75
    endloop
  endfacet
  facet normal 0.866025 0.5 0
    outer loop
      vertex 20.9747 -8.37305 2.75
      vertex 20.9747 -8.37305 -2.75
      vertex 19.8098 -6.35536 2.75
    endloop
  endfacet
  facet normal 0.512044 0.858959 0
    outer loop
      vertex 19.8098 -6.35536 2.75
      vertex 19.8098 -6.35536 -2.75
      vertex 10.5769 -0.851447 2.75
    endloop
  endfacet
  facet normal 0.512044 0.858959 0
    outer loop
      vertex 10.5769 -0.851447 2.75
      vertex 19.8098 -6.35536 -2.75
      vertex 10.5769 -0.851447 -2.75
    endloop
  endfacet
  facet normal 0.866025 0.5 0
    outer loop
      vertex 4.55108 9.5856 2.75
      vertex 10.5769 -0.851447 2.75
      vertex 10.5769 -0.851447 -2.75
    endloop
  endfacet
  facet normal 0.866025 0.5 0
    outer loop
      vertex 4.55108 9.5856 -2.75
      vertex 4.55108 9.5856 2.75
      vertex 10.5769 -0.851447 -2.75
    endloop
  endfacet
  facet normal 0.999903 0.0139639 0
    outer loop
      vertex 4.40099 20.3334 2.75
      vertex 4.55108 9.5856 2.75
      vertex 4.55108 9.5856 -2.75
    endloop
  endfacet
  facet normal 0.999903 0.0139639 0
    outer loop
      vertex 4.40099 20.3334 -2.75
      vertex 4.40099 20.3334 2.75
      vertex 4.55108 9.5856 -2.75
    endloop
  endfacet
  facet normal 0.866025 0.5 0
    outer loop
      vertex 4.40099 20.3334 -2.75
      vertex 3.23607 22.3511 -2.75
      vertex 3.23607 22.3511 2.75
    endloop
  endfacet
  facet normal 0.866025 0.5 0
    outer loop
      vertex 4.40099 20.3334 2.75
      vertex 4.40099 20.3334 -2.75
      vertex 3.23607 22.3511 2.75
    endloop
  endfacet
  facet normal 0.587785 0.809017 0
    outer loop
      vertex 1.23607 23.8042 -2.75
      vertex 1.23607 23.8042 2.75
      vertex 3.23607 22.3511 -2.75
    endloop
  endfacet
  facet normal 0.587785 0.809017 0
    outer loop
      vertex 3.23607 22.3511 -2.75
      vertex 1.23607 23.8042 2.75
      vertex 3.23607 22.3511 2.75
    endloop
  endfacet
  facet normal 0 1 0
    outer loop
      vertex -1.23607 23.8042 -2.75
      vertex -1.23607 23.8042 2.75
      vertex 1.23607 23.8042 -2.75
    endloop
  endfacet
  facet normal 0 1 0
    outer loop
      vertex 1.23607 23.8042 -2.75
      vertex -1.23607 23.8042 2.75
      vertex 1.23607 23.8042 2.75
    endloop
  endfacet
  facet normal -0.587785 0.809017 0
    outer loop
      vertex -3.23607 22.3511 -2.75
      vertex -3.23607 22.3511 2.75
      vertex -1.23607 23.8042 -2.75
    endloop
  endfacet
  facet normal -0.587785 0.809017 0
    outer loop
      vertex -1.23607 23.8042 -2.75
      vertex -3.23607 22.3511 2.75
      vertex -1.23607 23.8042 2.75
    endloop
  endfacet
  facet normal -0.866025 0.5 0
    outer loop
      vertex -4.40099 20.3334 -2.75
      vertex -4.40099 20.3334 2.75
      vertex -3.23607 22.3511 -2.75
    endloop
  endfacet
  facet normal -0.866025 0.5 0
    outer loop
      vertex -3.23607 22.3511 -2.75
      vertex -4.40099 20.3334 2.75
      vertex -3.23607 22.3511 2.75
    endloop
  endfacet
  facet normal -0.999903 0.0139639 0
    outer loop
      vertex -4.40099 20.3334 2.75
      vertex -4.40099 20.3334 -2.75
      vertex -4.55108 9.5856 2.75
    endloop
  endfacet
  facet normal -0.999903 0.0139639 0
    outer loop
      vertex -4.55108 9.5856 2.75
      vertex -4.40099 20.3334 -2.75
      vertex -4.55108 9.5856 -2.75
    endloop
  endfacet
  facet normal -0.866025 0.5 0
    outer loop
      vertex -4.55108 9.5856 2.75
      vertex -4.55108 9.5856 -2.75
      vertex -10.5769 -0.851447 2.75
    endloop
  endfacet
  facet normal -0.866025 0.5 0
    outer loop
      vertex -10.5769 -0.851447 2.75
      vertex -4.55108 9.5856 -2.75
      vertex -10.5769 -0.851447 -2.75
    endloop
  endfacet
  facet normal -0.512044 0.858959 0
    outer loop
      vertex -10.5769 -0.851447 2.75
      vertex -10.5769 -0.851447 -2.75
      vertex -19.8098 -6.35536 2.75
    endloop
  endfacet
  facet normal -0.512044 0.858959 0
    outer loop
      vertex -19.8098 -6.35536 2.75
      vertex -10.5769 -0.851447 -2.75
      vertex -19.8098 -6.35536 -2.75
    endloop
  endfacet
  facet normal -0.866025 0.5 0
    outer loop
      vertex -20.9747 -8.37305 -2.75
      vertex -20.9747 -8.37305 2.75
      vertex -19.8098 -6.35536 -2.75
    endloop
  endfacet
  facet normal -0.866025 0.5 0
    outer loop
      vertex -19.8098 -6.35536 -2.75
      vertex -20.9747 -8.37305 2.75
      vertex -19.8098 -6.35536 2.75
    endloop
  endfacet
  facet normal 0.743145 -0.66913 0
    outer loop
      vertex -18.4205 -8.09474 -2.75
      vertex -18.4205 -8.09474 2.75
      vertex -19.3303 -9.10518 2.75
    endloop
  endfacet
  facet normal 0.743145 -0.66913 0
    outer loop
      vertex -19.3303 -9.10518 -2.75
      vertex -18.4205 -8.09474 -2.75
      vertex -19.3303 -9.10518 2.75
    endloop
  endfacet
  facet normal 0.994522 -0.104528 0
    outer loop
      vertex -19.3303 -9.10518 -2.75
      vertex -19.3303 -9.10518 2.75
      vertex -19.4724 -10.4574 2.75
    endloop
  endfacet
  facet normal 0.994522 -0.104528 0
    outer loop
      vertex -19.4724 -10.4574 -2.75
      vertex -19.3303 -9.10518 -2.75
      vertex -19.4724 -10.4574 2.75
    endloop
  endfacet
  facet normal 0.207912 -0.978148 0
    outer loop
      vertex -17.0905 -7.81205 -2.75
      vertex -17.0905 -7.81205 2.75
      vertex -18.4205 -8.09474 2.75
    endloop
  endfacet
  facet normal 0.207912 -0.978148 0
    outer loop
      vertex -18.4205 -8.09474 -2.75
      vertex -17.0905 -7.81205 -2.75
      vertex -18.4205 -8.09474 2.75
    endloop
  endfacet
  facet normal -0.406737 -0.913545 0
    outer loop
      vertex -15.8484 -8.36508 -2.75
      vertex -15.8484 -8.36508 2.75
      vertex -17.0905 -7.81205 2.75
    endloop
  endfacet
  facet normal -0.406737 -0.913545 0
    outer loop
      vertex -17.0905 -7.81205 -2.75
      vertex -15.8484 -8.36508 -2.75
      vertex -17.0905 -7.81205 2.75
    endloop
  endfacet
  facet normal -0.866025 -0.5 0
    outer loop
      vertex -15.1686 -9.54259 2.75
      vertex -15.8484 -8.36508 2.75
      vertex -15.1686 -9.54259 -2.75
    endloop
  endfacet
  facet normal -0.866025 -0.5 0
    outer loop
      vertex -15.1686 -9.54259 -2.75
      vertex -15.8484 -8.36508 2.75
      vertex -15.8484 -8.36508 -2.75
    endloop
  endfacet
  facet normal -0.994522 0.104528 0
    outer loop
      vertex -15.1686 -9.54259 2.75
      vertex -15.1686 -9.54259 -2.75
      vertex -15.3107 -10.8948 2.75
    endloop
  endfacet
  facet normal -0.994522 0.104528 0
    outer loop
      vertex -15.3107 -10.8948 2.75
      vertex -15.1686 -9.54259 -2.75
      vertex -15.3107 -10.8948 -2.75
    endloop
  endfacet
  facet normal -0.743145 0.66913 0
    outer loop
      vertex -15.3107 -10.8948 2.75
      vertex -15.3107 -10.8948 -2.75
      vertex -16.2205 -11.9053 2.75
    endloop
  endfacet
  facet normal -0.743145 0.66913 0
    outer loop
      vertex -16.2205 -11.9053 2.75
      vertex -15.3107 -10.8948 -2.75
      vertex -16.2205 -11.9053 -2.75
    endloop
  endfacet
  facet normal -0.207912 0.978148 0
    outer loop
      vertex -16.2205 -11.9053 2.75
      vertex -16.2205 -11.9053 -2.75
      vertex -17.5505 -12.1879 2.75
    endloop
  endfacet
  facet normal -0.207912 0.978148 0
    outer loop
      vertex -17.5505 -12.1879 2.75
      vertex -16.2205 -11.9053 -2.75
      vertex -17.5505 -12.1879 -2.75
    endloop
  endfacet
  facet normal 0.406737 0.913545 0
    outer loop
      vertex -17.5505 -12.1879 2.75
      vertex -17.5505 -12.1879 -2.75
      vertex -18.7926 -11.6349 2.75
    endloop
  endfacet
  facet normal 0.406737 0.913545 0
    outer loop
      vertex -18.7926 -11.6349 2.75
      vertex -17.5505 -12.1879 -2.75
      vertex -18.7926 -11.6349 -2.75
    endloop
  endfacet
  facet normal 0.866025 0.5 0
    outer loop
      vertex -19.4724 -10.4574 2.75
      vertex -18.7926 -11.6349 2.75
      vertex -18.7926 -11.6349 -2.75
    endloop
  endfacet
  facet normal 0.866025 0.5 0
    outer loop
      vertex -19.4724 -10.4574 -2.75
      vertex -19.4724 -10.4574 2.75
      vertex -18.7926 -11.6349 -2.75
    endloop
  endfacet
  facet normal 0.951056 -0.309017 0
    outer loop
      vertex -3.64058 2.64503 -2.75
      vertex -3.64058 2.64503 1
      vertex -4.5 0 1
    endloop
  endfacet
  facet normal 0.951056 -0.309017 0
    outer loop
      vertex -4.5 0 -2.75
      vertex -3.64058 2.64503 -2.75
      vertex -4.5 0 1
    endloop
  endfacet
  facet normal 0.951056 0.309017 0
    outer loop
      vertex -4.5 0 1
      vertex -3.64058 -2.64503 1
      vertex -3.64058 -2.64503 -2.75
    endloop
  endfacet
  facet normal 0.951056 0.309017 0
    outer loop
      vertex -4.5 0 -2.75
      vertex -4.5 0 1
      vertex -3.64058 -2.64503 -2.75
    endloop
  endfacet
  facet normal 0.587785 -0.809017 0
    outer loop
      vertex -1.39058 4.27975 -2.75
      vertex -1.39058 4.27975 1
      vertex -3.64058 2.64503 1
    endloop
  endfacet
  facet normal 0.587785 -0.809017 0
    outer loop
      vertex -3.64058 2.64503 -2.75
      vertex -1.39058 4.27975 -2.75
      vertex -3.64058 2.64503 1
    endloop
  endfacet
  facet normal 0 -1 0
    outer loop
      vertex 1.39058 4.27975 -2.75
      vertex 1.39058 4.27975 1
      vertex -1.39058 4.27975 1
    endloop
  endfacet
  facet normal 0 -1 0
    outer loop
      vertex -1.39058 4.27975 -2.75
      vertex 1.39058 4.27975 -2.75
      vertex -1.39058 4.27975 1
    endloop
  endfacet
  facet normal -0.587785 -0.809017 0
    outer loop
      vertex 3.64058 2.64503 -2.75
      vertex 3.64058 2.64503 1
      vertex 1.39058 4.27975 1
    endloop
  endfacet
  facet normal -0.587785 -0.809017 0
    outer loop
      vertex 1.39058 4.27975 -2.75
      vertex 3.64058 2.64503 -2.75
      vertex 1.39058 4.27975 1
    endloop
  endfacet
  facet normal -0.951056 -0.309017 0
    outer loop
      vertex 4.5 0 1
      vertex 3.64058 2.64503 1
      vertex 4.5 0 -2.75
    endloop
  endfacet
  facet normal -0.951056 -0.309017 0
    outer loop
      vertex 4.5 0 -2.75
      vertex 3.64058 2.64503 1
      vertex 3.64058 2.64503 -2.75
    endloop
  endfacet
  facet normal -0.951056 0.309017 0
    outer loop
      vertex 4.5 0 1
      vertex 4.5 0 -2.75
      vertex 3.64058 -2.64503 1
    endloop
  endfacet
  facet normal -0.951056 0.309017 0
    outer loop
      vertex 3.64058 -2.64503 1
      vertex 4.5 0 -2.75
      vertex 3.64058 -2.64503 -2.75
    endloop
  endfacet
  facet normal -0.587785 0.809017 0
    outer loop
      vertex 3.64058 -2.64503 1
      vertex 3.64058 -2.64503 -2.75
      vertex 1.39058 -4.27975 1
    endloop
  endfacet
  facet normal -0.587785 0.809017 0
    outer loop
      vertex 1.39058 -4.27975 1
      vertex 3.64058 -2.64503 -2.75
      vertex 1.39058 -4.27975 -2.75
    endloop
  endfacet
  facet normal 0 1 0
    outer loop
      vertex 1.39058 -4.27975 1
      vertex 1.39058 -4.27975 -2.75
      vertex -1.39058 -4.27975 1
    endloop
  endfacet
  facet normal 0 1 0
    outer loop
      vertex -1.39058 -4.27975 1
      vertex 1.39058 -4.27975 -2.75
      vertex -1.39058 -4.27975 -2.75
    endloop
  endfacet
  facet normal 0.587785 0.809017 0
    outer loop
      vertex -1.39058 -4.27975 1
      vertex -1.39058 -4.27975 -2.75
      vertex -3.64058 -2.64503 1
    endloop
  endfacet
  facet normal 0.587785 0.809017 0
    outer loop
      vertex -3.64058 -2.64503 1
      vertex -1.39058 -4.27975 -2.75
      vertex -3.64058 -2.64503 -2.75
    endloop
  endfacet
  facet normal 0.951056 0.309017 0
    outer loop
      vertex -2.2 20 2.75
      vertex -1.77984 18.7069 2.75
      vertex -1.77984 18.7069 -2.75
    endloop
  endfacet
  facet normal 0.951056 0.309017 0
    outer loop
      vertex -2.2 20 -2.75
      vertex -2.2 20 2.75
      vertex -1.77984 18.7069 -2.75
    endloop
  endfacet
  facet normal 0.951056 -0.309017 0
    outer loop
      vertex -1.77984 21.2931 -2.75
      vertex -1.77984 21.2931 2.75
      vertex -2.2 20 2.75
    endloop
  endfacet
  facet normal 0.951056 -0.309017 0
    outer loop
      vertex -2.2 20 -2.75
      vertex -1.77984 21.2931 -2.75
      vertex -2.2 20 2.75
    endloop
  endfacet
  facet normal 0.587785 -0.809017 0
    outer loop
      vertex -0.679837 22.0923 -2.75
      vertex -0.679837 22.0923 2.75
      vertex -1.77984 21.2931 2.75
    endloop
  endfacet
  facet normal 0.587785 -0.809017 0
    outer loop
      vertex -1.77984 21.2931 -2.75
      vertex -0.679837 22.0923 -2.75
      vertex -1.77984 21.2931 2.75
    endloop
  endfacet
  facet normal 0 -1 0
    outer loop
      vertex 0.679837 22.0923 -2.75
      vertex 0.679837 22.0923 2.75
      vertex -0.679837 22.0923 2.75
    endloop
  endfacet
  facet normal 0 -1 0
    outer loop
      vertex -0.679837 22.0923 -2.75
      vertex 0.679837 22.0923 -2.75
      vertex -0.679837 22.0923 2.75
    endloop
  endfacet
  facet normal -0.587785 -0.809017 0
    outer loop
      vertex 1.77984 21.2931 -2.75
      vertex 1.77984 21.2931 2.75
      vertex 0.679837 22.0923 2.75
    endloop
  endfacet
  facet normal -0.587785 -0.809017 0
    outer loop
      vertex 0.679837 22.0923 -2.75
      vertex 1.77984 21.2931 -2.75
      vertex 0.679837 22.0923 2.75
    endloop
  endfacet
  facet normal -0.951056 -0.309017 0
    outer loop
      vertex 2.2 20 2.75
      vertex 1.77984 21.2931 2.75
      vertex 2.2 20 -2.75
    endloop
  endfacet
  facet normal -0.951056 -0.309017 0
    outer loop
      vertex 2.2 20 -2.75
      vertex 1.77984 21.2931 2.75
      vertex 1.77984 21.2931 -2.75
    endloop
  endfacet
  facet normal -0.951056 0.309017 0
    outer loop
      vertex 2.2 20 2.75
      vertex 2.2 20 -2.75
      vertex 1.77984 18.7069 2.75
    endloop
  endfacet
  facet normal -0.951056 0.309017 0
    outer loop
      vertex 1.77984 18.7069 2.75
      vertex 2.2 20 -2.75
      vertex 1.77984 18.7069 -2.75
    endloop
  endfacet
  facet normal -0.587785 0.809017 0
    outer loop
      vertex 1.77984 18.7069 2.75
      vertex 1.77984 18.7069 -2.75
      vertex 0.679837 17.9077 2.75
    endloop
  endfacet
  facet normal -0.587785 0.809017 0
    outer loop
      vertex 0.679837 17.9077 2.75
      vertex 1.77984 18.7069 -2.75
      vertex 0.679837 17.9077 -2.75
    endloop
  endfacet
  facet normal 0 1 0
    outer loop
      vertex 0.679837 17.9077 2.75
      vertex 0.679837 17.9077 -2.75
      vertex -0.679837 17.9077 2.75
    endloop
  endfacet
  facet normal 0 1 0
    outer loop
      vertex -0.679837 17.9077 2.75
      vertex 0.679837 17.9077 -2.75
      vertex -0.679837 17.9077 -2.75
    endloop
  endfacet
  facet normal 0.587785 0.809017 0
    outer loop
      vertex -0.679837 17.9077 2.75
      vertex -0.679837 17.9077 -2.75
      vertex -1.77984 18.7069 2.75
    endloop
  endfacet
  facet normal 0.587785 0.809017 0
    outer loop
      vertex -1.77984 18.7069 2.75
      vertex -0.679837 17.9077 -2.75
      vertex -1.77984 18.7069 -2.75
    endloop
  endfacet
  facet normal 0.866025 -0.5 0
    outer loop
      vertex 15.8484 -8.36508 -2.75
      vertex 15.8484 -8.36508 2.75
      vertex 15.1686 -9.54259 2.75
    endloop
  endfacet
  facet normal 0.866025 -0.5 0
    outer loop
      vertex 15.1686 -9.54259 -2.75
      vertex 15.8484 -8.36508 -2.75
      vertex 15.1686 -9.54259 2.75
    endloop
  endfacet
  facet normal 0.994522 0.104528 0
    outer loop
      vertex 15.1686 -9.54259 2.75
      vertex 15.3107 -10.8948 2.75
      vertex 15.3107 -10.8948 -2.75
    endloop
  endfacet
  facet normal 0.994522 0.104528 0
    outer loop
      vertex 15.1686 -9.54259 -2.75
      vertex 15.1686 -9.54259 2.75
      vertex 15.3107 -10.8948 -2.75
    endloop
  endfacet
  facet normal 0.406737 -0.913545 0
    outer loop
      vertex 17.0905 -7.81205 -2.75
      vertex 17.0905 -7.81205 2.75
      vertex 15.8484 -8.36508 2.75
    endloop
  endfacet
  facet normal 0.406737 -0.913545 0
    outer loop
      vertex 15.8484 -8.36508 -2.75
      vertex 17.0905 -7.81205 -2.75
      vertex 15.8484 -8.36508 2.75
    endloop
  endfacet
  facet normal -0.207912 -0.978148 0
    outer loop
      vertex 18.4205 -8.09474 -2.75
      vertex 18.4205 -8.09474 2.75
      vertex 17.0905 -7.81205 2.75
    endloop
  endfacet
  facet normal -0.207912 -0.978148 0
    outer loop
      vertex 17.0905 -7.81205 -2.75
      vertex 18.4205 -8.09474 -2.75
      vertex 17.0905 -7.81205 2.75
    endloop
  endfacet
  facet normal -0.743145 -0.66913 0
    outer loop
      vertex 19.3303 -9.10518 2.75
      vertex 18.4205 -8.09474 2.75
      vertex 19.3303 -9.10518 -2.75
    endloop
  endfacet
  facet normal -0.743145 -0.66913 0
    outer loop
      vertex 19.3303 -9.10518 -2.75
      vertex 18.4205 -8.09474 2.75
      vertex 18.4205 -8.09474 -2.75
    endloop
  endfacet
  facet normal -0.994522 -0.104528 0
    outer loop
      vertex 19.4724 -10.4574 2.75
      vertex 19.3303 -9.10518 2.75
      vertex 19.4724 -10.4574 -2.75
    endloop
  endfacet
  facet normal -0.994522 -0.104528 0
    outer loop
      vertex 19.4724 -10.4574 -2.75
      vertex 19.3303 -9.10518 2.75
      vertex 19.3303 -9.10518 -2.75
    endloop
  endfacet
  facet normal -0.866025 0.5 0
    outer loop
      vertex 19.4724 -10.4574 2.75
      vertex 19.4724 -10.4574 -2.75
      vertex 18.7926 -11.6349 2.75
    endloop
  endfacet
  facet normal -0.866025 0.5 0
    outer loop
      vertex 18.7926 -11.6349 2.75
      vertex 19.4724 -10.4574 -2.75
      vertex 18.7926 -11.6349 -2.75
    endloop
  endfacet
  facet normal -0.406737 0.913545 0
    outer loop
      vertex 18.7926 -11.6349 2.75
      vertex 18.7926 -11.6349 -2.75
      vertex 17.5505 -12.1879 2.75
    endloop
  endfacet
  facet normal -0.406737 0.913545 0
    outer loop
      vertex 17.5505 -12.1879 2.75
      vertex 18.7926 -11.6349 -2.75
      vertex 17.5505 -12.1879 -2.75
    endloop
  endfacet
  facet normal 0.207912 0.978148 0
    outer loop
      vertex 17.5505 -12.1879 2.75
      vertex 17.5505 -12.1879 -2.75
      vertex 16.2205 -11.9053 2.75
    endloop
  endfacet
  facet normal 0.207912 0.978148 0
    outer loop
      vertex 16.2205 -11.9053 2.75
      vertex 17.5505 -12.1879 -2.75
      vertex 16.2205 -11.9053 -2.75
    endloop
  endfacet
  facet normal 0.743145 0.66913 0
    outer loop
      vertex 15.3107 -10.8948 2.75
      vertex 16.2205 -11.9053 2.75
      vertex 16.2205 -11.9053 -2.75
    endloop
  endfacet
  facet normal 0.743145 0.66913 0
    outer loop
      vertex 15.3107 -10.8948 -2.75
      vertex 15.3107 -10.8948 2.75
      vertex 16.2205 -11.9053 -2.75
    endloop
  endfacet
  facet normal 0.951057 0.309017 0
    outer loop
      vertex -2.1 0 2.75
      vertex -1.69894 -1.23435 2.75
      vertex -1.69894 -1.23435 1
    endloop
  endfacet
  facet normal 0.951057 0.309017 0
    outer loop
      vertex -2.1 0 1
      vertex -2.1 0 2.75
      vertex -1.69894 -1.23435 1
    endloop
  endfacet
  facet normal 0.587785 0.809017 0
    outer loop
      vertex -0.648936 -1.99722 2.75
      vertex -0.648936 -1.99722 1
      vertex -1.69894 -1.23435 2.75
    endloop
  endfacet
  facet normal 0.587785 0.809017 0
    outer loop
      vertex -1.69894 -1.23435 2.75
      vertex -0.648936 -1.99722 1
      vertex -1.69894 -1.23435 1
    endloop
  endfacet
  facet normal 0 1 0
    outer loop
      vertex 0.648936 -1.99722 2.75
      vertex 0.648936 -1.99722 1
      vertex -0.648936 -1.99722 2.75
    endloop
  endfacet
  facet normal 0 1 0
    outer loop
      vertex -0.648936 -1.99722 2.75
      vertex 0.648936 -1.99722 1
      vertex -0.648936 -1.99722 1
    endloop
  endfacet
  facet normal -0.587785 0.809017 0
    outer loop
      vertex 1.69894 -1.23435 2.75
      vertex 1.69894 -1.23435 1
      vertex 0.648936 -1.99722 2.75
    endloop
  endfacet
  facet normal -0.587785 0.809017 0
    outer loop
      vertex 0.648936 -1.99722 2.75
      vertex 1.69894 -1.23435 1
      vertex 0.648936 -1.99722 1
    endloop
  endfacet
  facet normal -0.951057 0.309017 0
    outer loop
      vertex 2.1 0 2.75
      vertex 2.1 0 1
      vertex 1.69894 -1.23435 2.75
    endloop
  endfacet
  facet normal -0.951057 0.309017 0
    outer loop
      vertex 1.69894 -1.23435 2.75
      vertex 2.1 0 1
      vertex 1.69894 -1.23435 1
    endloop
  endfacet
  facet normal -0.951057 -0.309017 0
    outer loop
      vertex 2.1 0 2.75
      vertex 1.69894 1.23435 2.75
      vertex 2.1 0 1
    endloop
  endfacet
  facet normal -0.951057 -0.309017 0
    outer loop
      vertex 2.1 0 1
      vertex 1.69894 1.23435 2.75
      vertex 1.69894 1.23435 1
    endloop
  endfacet
  facet normal -0.587785 -0.809017 0
    outer loop
      vertex 1.69894 1.23435 1
      vertex 1.69894 1.23435 2.75
      vertex 0.648936 1.99722 2.75
    endloop
  endfacet
  facet normal -0.587785 -0.809017 0
    outer loop
      vertex 0.648936 1.99722 1
      vertex 1.69894 1.23435 1
      vertex 0.648936 1.99722 2.75
    endloop
  endfacet
  facet normal 0 -1 0
    outer loop
      vertex 0.648936 1.99722 1
      vertex 0.648936 1.99722 2.75
      vertex -0.648936 1.99722 2.75
    endloop
  endfacet
  facet normal 0 -1 0
    outer loop
      vertex -0.648936 1.99722 1
      vertex 0.648936 1.99722 1
      vertex -0.648936 1.99722 2.75
    endloop
  endfacet
  facet normal 0.587785 -0.809017 0
    outer loop
      vertex -0.648936 1.99722 1
      vertex -0.648936 1.99722 2.75
      vertex -1.69894 1.23435 2.75
    endloop
  endfacet
  facet normal 0.587785 -0.809017 0
    outer loop
      vertex -1.69894 1.23435 1
      vertex -0.648936 1.99722 1
      vertex -1.69894 1.23435 2.75
    endloop
  endfacet
  facet normal 0.951057 -0.309017 0
    outer loop
      vertex -1.69894 1.23435 1
      vertex -1.69894 1.23435 2.75
      vertex -2.1 0 2.75
    endloop
  endfacet
  facet normal 0.951057 -0.309017 0
    outer loop
      vertex -2.1 0 1
      vertex -1.69894 1.23435 1
      vertex -2.1 0 2.75
    endloop
  endfacet
  facet normal 0 0 -1
    outer loop
      vertex -1.39058 4.27975 1
      vertex 1.39058 4.27975 1
      vertex -3.64058 2.64503 1
    endloop
  endfacet
  facet normal 0 0 -1
    outer loop
      vertex -3.64058 2.64503 1
      vertex 1.39058 4.27975 1
      vertex 3.64058 2.64503 1
    endloop
  endfacet
  facet normal 0 0 -1
    outer loop
      vertex 1.69894 1.23435 1
      vertex 3.64058 2.64503 1
      vertex 4.5 0 1
    endloop
  endfacet
  facet normal 0 0 -1
    outer loop
      vertex 1.69894 -1.23435 1
      vertex 4.5 0 1
      vertex 3.64058 -2.64503 1
    endloop
  endfacet
  facet normal 0 0 -1
    outer loop
      vertex 0.648936 -1.99722 1
      vertex 3.64058 -2.64503 1
      vertex 1.39058 -4.27975 1
    endloop
  endfacet
  facet normal 0 0 -1
    outer loop
      vertex -1.69894 -1.23435 1
      vertex 1.39058 -4.27975 1
      vertex -1.39058 -4.27975 1
    endloop
  endfacet
  facet normal 0 0 -1
    outer loop
      vertex -3.64058 2.64503 1
      vertex -1.39058 -4.27975 1
      vertex -3.64058 -2.64503 1
    endloop
  endfacet
  facet normal 0 0 -1
    outer loop
      vertex -3.64058 2.64503 1
      vertex -3.64058 -2.64503 1
      vertex -4.5 0 1
    endloop
  endfacet
  facet normal 0 0 -1
    outer loop
      vertex -0.648936 -1.99722 1
      vertex 1.39058 -4.27975 1
      vertex -1.69894 -1.23435 1
    endloop
  endfacet
  facet normal 0 0 -1
    outer loop
      vertex -3.64058 2.64503 1
      vertex -1.69894 -1.23435 1
      vertex -1.39058 -4.27975 1
    endloop
  endfacet
  facet normal 0 0 -1
    outer loop
      vertex -2.1 0 1
      vertex -3.64058 2.64503 1
      vertex -1.69894 1.23435 1
    endloop
  endfacet
  facet normal 0 0 -1
    outer loop
      vertex 1.69894 -1.23435 1
      vertex 3.64058 -2.64503 1
      vertex 0.648936 -1.99722 1
    endloop
  endfacet
  facet normal 0 0 -1
    outer loop
      vertex 2.1 0 1
      vertex 4.5 0 1
      vertex 1.69894 -1.23435 1
    endloop
  endfacet
  facet normal 0 0 -1
    outer loop
      vertex 1.69894 1.23435 1
      vertex 4.5 0 1
      vertex 2.1 0 1
    endloop
  endfacet
  facet normal 0 0 -1
    outer loop
      vertex 0.648936 1.99722 1
      vertex 3.64058 2.64503 1
      vertex 1.69894 1.23435 1
    endloop
  endfacet
  facet normal 0 0 -1
    outer loop
      vertex -1.69894 1.23435 1
      vertex -3.64058 2.64503 1
      vertex -0.648936 1.99722 1
    endloop
  endfacet
  facet normal 0 0 -1
    outer loop
      vertex -3.64058 2.64503 1
      vertex 3.64058 2.64503 1
      vertex 0.648936 1.99722 1
    endloop
  endfacet
  facet normal 0 0 -1
    outer loop
      vertex -3.64058 2.64503 1
      vertex 0.648936 1.99722 1
      vertex -0.648936 1.99722 1
    endloop
  endfacet
  facet normal 0 0 -1
    outer loop
      vertex -3.64058 2.64503 1
      vertex -2.1 0 1
      vertex -1.69894 -1.23435 1
    endloop
  endfacet
  facet normal 0 0 -1
    outer loop
      vertex 0.648936 -1.99722 1
      vertex 1.39058 -4.27975 1
      vertex -0.648936 -1.99722 1
    endloop
  endfacet
endsolid OpenSCAD_Model
