solid OpenSCAD_Model
  facet normal -0.866025 -0.5 0
    outer loop
      vertex -21.2331 -10.8316 -2.2
      vertex -19.997 -12.9726 -2.2
      vertex -21.2331 -10.8316 2.2
    endloop
  endfacet
  facet normal -0.866025 -0.5 0
    outer loop
      vertex -21.2331 -10.8316 2.2
      vertex -19.997 -12.9726 -2.2
      vertex -19.997 -12.9726 2.2
    endloop
  endfacet
  facet normal 0 0 -1
    outer loop
      vertex -21.2331 -10.8316 -2.2
      vertex -20.9747 -8.37305 -2.2
      vertex -19.997 -12.9726 -2.2
    endloop
  endfacet
  facet normal 0 0 -1
    outer loop
      vertex -19.3303 -9.10518 -2.2
      vertex -20.9747 -8.37305 -2.2
      vertex -3.23607 22.3511 -2.2
    endloop
  endfacet
  facet normal 0 0 -1
    outer loop
      vertex -0.679837 22.0923 -2.2
      vertex -1.23607 23.8042 -2.2
      vertex 1.23607 23.8042 -2.2
    endloop
  endfacet
  facet normal 0 0 -1
    outer loop
      vertex 1.77984 21.2931 -2.2
      vertex 1.23607 23.8042 -2.2
      vertex 3.23607 22.3511 -2.2
    endloop
  endfacet
  facet normal 0 0 -1
    outer loop
      vertex 6.2 0 -2.2
      vertex 3.23607 22.3511 -2.2
      vertex 20.9747 -8.37305 -2.2
    endloop
  endfacet
  facet normal 0 0 -1
    outer loop
      vertex 19.3303 -9.10518 -2.2
      vertex 20.9747 -8.37305 -2.2
      vertex 21.2331 -10.8316 -2.2
    endloop
  endfacet
  facet normal 0 0 -1
    outer loop
      vertex 17.5505 -12.1879 -2.2
      vertex 21.2331 -10.8316 -2.2
      vertex 19.997 -12.9726 -2.2
    endloop
  endfacet
  facet normal 0 0 -1
    outer loop
      vertex 5.01591 3.64427 -2.2
      vertex 3.23607 22.3511 -2.2
      vertex 6.2 0 -2.2
    endloop
  endfacet
  facet normal 0 0 -1
    outer loop
      vertex 18.4205 -8.09474 -2.2
      vertex 6.2 0 -2.2
      vertex 20.9747 -8.37305 -2.2
    endloop
  endfacet
  facet normal 0 0 -1
    outer loop
      vertex 1.9159 5.89655 -2.2
      vertex 3.23607 22.3511 -2.2
      vertex 5.01591 3.64427 -2.2
    endloop
  endfacet
  facet normal 0 0 -1
    outer loop
      vertex -1.9159 5.89655 -2.2
      vertex 3.23607 22.3511 -2.2
      vertex 1.9159 5.89655 -2.2
    endloop
  endfacet
  facet normal 0 0 -1
    outer loop
      vertex 1.77984 18.7069 -2.2
      vertex 3.23607 22.3511 -2.2
      vertex -1.9159 5.89655 -2.2
    endloop
  endfacet
  facet normal 0 0 -1
    outer loop
      vertex -6.2 -13.9781 -2.2
      vertex -17.5505 -12.1879 -2.2
      vertex -16.2205 -11.9053 -2.2
    endloop
  endfacet
  facet normal 0 0 -1
    outer loop
      vertex -6.2 -13.9781 -2.2
      vertex -19.997 -12.9726 -2.2
      vertex -17.5505 -12.1879 -2.2
    endloop
  endfacet
  facet normal 0 0 -1
    outer loop
      vertex -18.7926 -11.6349 -2.2
      vertex -19.997 -12.9726 -2.2
      vertex -19.4724 -10.4574 -2.2
    endloop
  endfacet
  facet normal 0 0 -1
    outer loop
      vertex -19.997 -12.9726 -2.2
      vertex -6.2 -13.9781 -2.2
      vertex -17.7386 -13.9781 -2.2
    endloop
  endfacet
  facet normal 0 0 -1
    outer loop
      vertex -19.997 -12.9726 -2.2
      vertex -20.9747 -8.37305 -2.2
      vertex -19.3303 -9.10518 -2.2
    endloop
  endfacet
  facet normal 0 0 -1
    outer loop
      vertex -18.4205 -8.09474 -2.2
      vertex -19.3303 -9.10518 -2.2
      vertex -3.23607 22.3511 -2.2
    endloop
  endfacet
  facet normal 0 0 -1
    outer loop
      vertex -19.997 -12.9726 -2.2
      vertex -19.3303 -9.10518 -2.2
      vertex -19.4724 -10.4574 -2.2
    endloop
  endfacet
  facet normal 0 0 -1
    outer loop
      vertex -17.5505 -12.1879 -2.2
      vertex -19.997 -12.9726 -2.2
      vertex -18.7926 -11.6349 -2.2
    endloop
  endfacet
  facet normal 0 0 -1
    outer loop
      vertex -6.2 -13.9781 -2.2
      vertex -15.3107 -10.8948 -2.2
      vertex -15.1686 -9.54259 -2.2
    endloop
  endfacet
  facet normal 0 0 -1
    outer loop
      vertex 0.679837 17.9077 -2.2
      vertex -15.8484 -8.36508 -2.2
      vertex -17.0905 -7.81205 -2.2
    endloop
  endfacet
  facet normal 0 0 -1
    outer loop
      vertex -15.8484 -8.36508 -2.2
      vertex -6.2 0 -2.2
      vertex -15.1686 -9.54259 -2.2
    endloop
  endfacet
  facet normal 0 0 -1
    outer loop
      vertex -18.4205 -8.09474 -2.2
      vertex -3.23607 22.3511 -2.2
      vertex -1.23607 23.8042 -2.2
    endloop
  endfacet
  facet normal 0 0 -1
    outer loop
      vertex -15.8484 -8.36508 -2.2
      vertex -5.01591 3.64427 -2.2
      vertex -6.2 0 -2.2
    endloop
  endfacet
  facet normal 0 0 -1
    outer loop
      vertex -18.4205 -8.09474 -2.2
      vertex -1.23607 23.8042 -2.2
      vertex -17.0905 -7.81205 -2.2
    endloop
  endfacet
  facet normal 0 0 -1
    outer loop
      vertex -0.679837 17.9077 -2.2
      vertex -17.0905 -7.81205 -2.2
      vertex -1.77984 18.7069 -2.2
    endloop
  endfacet
  facet normal 0 0 -1
    outer loop
      vertex -17.0905 -7.81205 -2.2
      vertex -1.23607 23.8042 -2.2
      vertex -2.2 20 -2.2
    endloop
  endfacet
  facet normal 0 0 -1
    outer loop
      vertex -17.0905 -7.81205 -2.2
      vertex -2.2 20 -2.2
      vertex -1.77984 18.7069 -2.2
    endloop
  endfacet
  facet normal 0 0 -1
    outer loop
      vertex -0.679837 22.0923 -2.2
      vertex 1.23607 23.8042 -2.2
      vertex 0.679837 22.0923 -2.2
    endloop
  endfacet
  facet normal 0 0 -1
    outer loop
      vertex 1.77984 18.7069 -2.2
      vertex -5.01591 3.64427 -2.2
      vertex 0.679837 17.9077 -2.2
    endloop
  endfacet
  facet normal 0 0 -1
    outer loop
      vertex -15.8484 -8.36508 -2.2
      vertex 0.679837 17.9077 -2.2
      vertex -5.01591 3.64427 -2.2
    endloop
  endfacet
  facet normal 0 0 -1
    outer loop
      vertex 2.2 20 -2.2
      vertex 3.23607 22.3511 -2.2
      vertex 1.77984 18.7069 -2.2
    endloop
  endfacet
  facet normal 0 0 -1
    outer loop
      vertex -5.01591 3.64427 -2.2
      vertex 1.77984 18.7069 -2.2
      vertex -1.9159 5.89655 -2.2
    endloop
  endfacet
  facet normal 0 0 -1
    outer loop
      vertex 1.77984 21.2931 -2.2
      vertex 3.23607 22.3511 -2.2
      vertex 2.2 20 -2.2
    endloop
  endfacet
  facet normal 0 0 -1
    outer loop
      vertex 0.679837 22.0923 -2.2
      vertex 1.23607 23.8042 -2.2
      vertex 1.77984 21.2931 -2.2
    endloop
  endfacet
  facet normal 0 0 -1
    outer loop
      vertex -1.77984 21.2931 -2.2
      vertex -1.23607 23.8042 -2.2
      vertex -0.679837 22.0923 -2.2
    endloop
  endfacet
  facet normal 0 0 -1
    outer loop
      vertex 19.4724 -10.4574 -2.2
      vertex 21.2331 -10.8316 -2.2
      vertex 18.7926 -11.6349 -2.2
    endloop
  endfacet
  facet normal 0 0 -1
    outer loop
      vertex -2.2 20 -2.2
      vertex -1.23607 23.8042 -2.2
      vertex -1.77984 21.2931 -2.2
    endloop
  endfacet
  facet normal 0 0 -1
    outer loop
      vertex -6.2 -13.9781 -2.2
      vertex -15.1686 -9.54259 -2.2
      vertex -6.2 0 -2.2
    endloop
  endfacet
  facet normal 0 0 -1
    outer loop
      vertex 18.7926 -11.6349 -2.2
      vertex 21.2331 -10.8316 -2.2
      vertex 17.5505 -12.1879 -2.2
    endloop
  endfacet
  facet normal 0 0 -1
    outer loop
      vertex 16.2205 -11.9053 -2.2
      vertex 17.5505 -12.1879 -2.2
      vertex 19.997 -12.9726 -2.2
    endloop
  endfacet
  facet normal 0 0 -1
    outer loop
      vertex 19.3303 -9.10518 -2.2
      vertex 21.2331 -10.8316 -2.2
      vertex 19.4724 -10.4574 -2.2
    endloop
  endfacet
  facet normal 0 0 -1
    outer loop
      vertex 18.4205 -8.09474 -2.2
      vertex 20.9747 -8.37305 -2.2
      vertex 19.3303 -9.10518 -2.2
    endloop
  endfacet
  facet normal 0 0 -1
    outer loop
      vertex 17.0905 -7.81205 -2.2
      vertex 6.2 0 -2.2
      vertex 18.4205 -8.09474 -2.2
    endloop
  endfacet
  facet normal 0 0 -1
    outer loop
      vertex -6.2 -13.9781 -2.2
      vertex -16.2205 -11.9053 -2.2
      vertex -15.3107 -10.8948 -2.2
    endloop
  endfacet
  facet normal 0 0 -1
    outer loop
      vertex 6.2 0 -2.2
      vertex 17.0905 -7.81205 -2.2
      vertex 15.8484 -8.36508 -2.2
    endloop
  endfacet
  facet normal 0 0 -1
    outer loop
      vertex 6.2 0 -2.2
      vertex 15.8484 -8.36508 -2.2
      vertex 15.1686 -9.54259 -2.2
    endloop
  endfacet
  facet normal 0 0 -1
    outer loop
      vertex 6.2 0 -2.2
      vertex 15.1686 -9.54259 -2.2
      vertex 15.3107 -10.8948 -2.2
    endloop
  endfacet
  facet normal 0 0 -1
    outer loop
      vertex 16.2205 -11.9053 -2.2
      vertex 19.997 -12.9726 -2.2
      vertex 17.7386 -13.9781 -2.2
    endloop
  endfacet
  facet normal 0 0 -1
    outer loop
      vertex 15.3107 -10.8948 -2.2
      vertex 16.2205 -11.9053 -2.2
      vertex 17.7386 -13.9781 -2.2
    endloop
  endfacet
  facet normal 0 0 -1
    outer loop
      vertex 6.2 0 -2.2
      vertex 15.3107 -10.8948 -2.2
      vertex 17.7386 -13.9781 -2.2
    endloop
  endfacet
  facet normal 0 0 -1
    outer loop
      vertex 6.2 0 -2.2
      vertex 17.7386 -13.9781 -2.2
      vertex 6.2 -13.9781 -2.2
    endloop
  endfacet
  facet normal 0 0 -1
    outer loop
      vertex 0.679837 17.9077 -2.2
      vertex -17.0905 -7.81205 -2.2
      vertex -0.679837 17.9077 -2.2
    endloop
  endfacet
  facet normal -0.994522 0.104528 0
    outer loop
      vertex -21.2331 -10.8316 -2.2
      vertex -21.2331 -10.8316 2.2
      vertex -20.9747 -8.37305 -2.2
    endloop
  endfacet
  facet normal -0.994522 0.104528 0
    outer loop
      vertex -20.9747 -8.37305 -2.2
      vertex -21.2331 -10.8316 2.2
      vertex -20.9747 -8.37305 2.2
    endloop
  endfacet
  facet normal 0 0 1
    outer loop
      vertex -20.9747 -8.37305 2.2
      vertex -21.2331 -10.8316 2.2
      vertex -19.997 -12.9726 2.2
    endloop
  endfacet
  facet normal 0 0 1
    outer loop
      vertex -19.4724 -10.4574 2.2
      vertex -20.9747 -8.37305 2.2
      vertex -17.7386 -13.9781 2.2
    endloop
  endfacet
  facet normal 0 0 1
    outer loop
      vertex -17.7386 -13.9781 2.2
      vertex -20.9747 -8.37305 2.2
      vertex -19.997 -12.9726 2.2
    endloop
  endfacet
  facet normal 0 0 1
    outer loop
      vertex -5.01591 3.64427 2.2
      vertex -20.9747 -8.37305 2.2
      vertex -6.2 0 2.2
    endloop
  endfacet
  facet normal 0 0 1
    outer loop
      vertex 0.679837 17.9077 2.2
      vertex -20.9747 -8.37305 2.2
      vertex -5.01591 3.64427 2.2
    endloop
  endfacet
  facet normal 0 0 1
    outer loop
      vertex 1.77984 18.7069 2.2
      vertex -5.01591 3.64427 2.2
      vertex -1.9159 5.89655 2.2
    endloop
  endfacet
  facet normal 0 0 1
    outer loop
      vertex 3.23607 22.3511 2.2
      vertex -1.9159 5.89655 2.2
      vertex 1.9159 5.89655 2.2
    endloop
  endfacet
  facet normal 0 0 1
    outer loop
      vertex 3.23607 22.3511 2.2
      vertex 1.9159 5.89655 2.2
      vertex 5.01591 3.64427 2.2
    endloop
  endfacet
  facet normal 0 0 1
    outer loop
      vertex 15.3107 -10.8948 2.2
      vertex 5.01591 3.64427 2.2
      vertex 6.2 0 2.2
    endloop
  endfacet
  facet normal 0 0 1
    outer loop
      vertex 17.7386 -13.9781 2.2
      vertex 6.2 0 2.2
      vertex 6.2 -13.9781 2.2
    endloop
  endfacet
  facet normal 0 0 1
    outer loop
      vertex 17.5505 -12.1879 2.2
      vertex 16.2205 -11.9053 2.2
      vertex 17.7386 -13.9781 2.2
    endloop
  endfacet
  facet normal 0 0 1
    outer loop
      vertex 18.7926 -11.6349 2.2
      vertex 17.5505 -12.1879 2.2
      vertex 19.997 -12.9726 2.2
    endloop
  endfacet
  facet normal 0 0 1
    outer loop
      vertex 3.23607 22.3511 2.2
      vertex 5.01591 3.64427 2.2
      vertex 20.9747 -8.37305 2.2
    endloop
  endfacet
  facet normal 0 0 1
    outer loop
      vertex -3.23607 22.3511 2.2
      vertex -20.9747 -8.37305 2.2
      vertex -1.23607 23.8042 2.2
    endloop
  endfacet
  facet normal 0 0 1
    outer loop
      vertex -18.7926 -11.6349 2.2
      vertex -19.4724 -10.4574 2.2
      vertex -17.7386 -13.9781 2.2
    endloop
  endfacet
  facet normal 0 0 1
    outer loop
      vertex -19.3303 -9.10518 2.2
      vertex -20.9747 -8.37305 2.2
      vertex -19.4724 -10.4574 2.2
    endloop
  endfacet
  facet normal 0 0 1
    outer loop
      vertex -15.8484 -8.36508 2.2
      vertex -15.1686 -9.54259 2.2
      vertex -6.2 -13.9781 2.2
    endloop
  endfacet
  facet normal 0 0 1
    outer loop
      vertex -0.679837 22.0923 2.2
      vertex 0.679837 22.0923 2.2
      vertex 1.23607 23.8042 2.2
    endloop
  endfacet
  facet normal 0 0 1
    outer loop
      vertex -6.2 0 2.2
      vertex -20.9747 -8.37305 2.2
      vertex -18.4205 -8.09474 2.2
    endloop
  endfacet
  facet normal 0 0 1
    outer loop
      vertex -6.2 0 2.2
      vertex -18.4205 -8.09474 2.2
      vertex -17.0905 -7.81205 2.2
    endloop
  endfacet
  facet normal 0 0 1
    outer loop
      vertex -6.2 0 2.2
      vertex -15.8484 -8.36508 2.2
      vertex -6.2 -13.9781 2.2
    endloop
  endfacet
  facet normal 0 0 1
    outer loop
      vertex -6.2 0 2.2
      vertex -17.0905 -7.81205 2.2
      vertex -15.8484 -8.36508 2.2
    endloop
  endfacet
  facet normal 0 0 1
    outer loop
      vertex -1.77984 18.7069 2.2
      vertex -2.2 20 2.2
      vertex -20.9747 -8.37305 2.2
    endloop
  endfacet
  facet normal 0 0 1
    outer loop
      vertex -6.2 -13.9781 2.2
      vertex -16.2205 -11.9053 2.2
      vertex -17.7386 -13.9781 2.2
    endloop
  endfacet
  facet normal 0 0 1
    outer loop
      vertex -16.2205 -11.9053 2.2
      vertex -17.5505 -12.1879 2.2
      vertex -17.7386 -13.9781 2.2
    endloop
  endfacet
  facet normal 0 0 1
    outer loop
      vertex -17.5505 -12.1879 2.2
      vertex -18.7926 -11.6349 2.2
      vertex -17.7386 -13.9781 2.2
    endloop
  endfacet
  facet normal 0 0 1
    outer loop
      vertex -1.23607 23.8042 2.2
      vertex -20.9747 -8.37305 2.2
      vertex -2.2 20 2.2
    endloop
  endfacet
  facet normal 0 0 1
    outer loop
      vertex -1.23607 23.8042 2.2
      vertex -1.77984 21.2931 2.2
      vertex 1.23607 23.8042 2.2
    endloop
  endfacet
  facet normal 0 0 1
    outer loop
      vertex -1.23607 23.8042 2.2
      vertex -2.2 20 2.2
      vertex -1.77984 21.2931 2.2
    endloop
  endfacet
  facet normal 0 0 1
    outer loop
      vertex -1.77984 21.2931 2.2
      vertex -0.679837 22.0923 2.2
      vertex 1.23607 23.8042 2.2
    endloop
  endfacet
  facet normal 0 0 1
    outer loop
      vertex 1.23607 23.8042 2.2
      vertex 0.679837 22.0923 2.2
      vertex 3.23607 22.3511 2.2
    endloop
  endfacet
  facet normal 0 0 1
    outer loop
      vertex 0.679837 22.0923 2.2
      vertex 1.77984 21.2931 2.2
      vertex 3.23607 22.3511 2.2
    endloop
  endfacet
  facet normal 0 0 1
    outer loop
      vertex 3.23607 22.3511 2.2
      vertex 2.2 20 2.2
      vertex -1.9159 5.89655 2.2
    endloop
  endfacet
  facet normal 0 0 1
    outer loop
      vertex 2.2 20 2.2
      vertex 1.77984 18.7069 2.2
      vertex -1.9159 5.89655 2.2
    endloop
  endfacet
  facet normal 0 0 1
    outer loop
      vertex 0.679837 17.9077 2.2
      vertex -0.679837 17.9077 2.2
      vertex -20.9747 -8.37305 2.2
    endloop
  endfacet
  facet normal 0 0 1
    outer loop
      vertex 1.77984 18.7069 2.2
      vertex 0.679837 17.9077 2.2
      vertex -5.01591 3.64427 2.2
    endloop
  endfacet
  facet normal 0 0 1
    outer loop
      vertex 15.3107 -10.8948 2.2
      vertex 15.1686 -9.54259 2.2
      vertex 5.01591 3.64427 2.2
    endloop
  endfacet
  facet normal 0 0 1
    outer loop
      vertex -1.77984 18.7069 2.2
      vertex -20.9747 -8.37305 2.2
      vertex -0.679837 17.9077 2.2
    endloop
  endfacet
  facet normal 0 0 1
    outer loop
      vertex 17.7386 -13.9781 2.2
      vertex 15.3107 -10.8948 2.2
      vertex 6.2 0 2.2
    endloop
  endfacet
  facet normal 0 0 1
    outer loop
      vertex 17.0905 -7.81205 2.2
      vertex 18.4205 -8.09474 2.2
      vertex 5.01591 3.64427 2.2
    endloop
  endfacet
  facet normal 0 0 1
    outer loop
      vertex 17.0905 -7.81205 2.2
      vertex 5.01591 3.64427 2.2
      vertex 15.8484 -8.36508 2.2
    endloop
  endfacet
  facet normal 0 0 1
    outer loop
      vertex 19.3303 -9.10518 2.2
      vertex 19.4724 -10.4574 2.2
      vertex 21.2331 -10.8316 2.2
    endloop
  endfacet
  facet normal 0 0 1
    outer loop
      vertex 20.9747 -8.37305 2.2
      vertex 18.4205 -8.09474 2.2
      vertex 21.2331 -10.8316 2.2
    endloop
  endfacet
  facet normal 0 0 1
    outer loop
      vertex 20.9747 -8.37305 2.2
      vertex 5.01591 3.64427 2.2
      vertex 18.4205 -8.09474 2.2
    endloop
  endfacet
  facet normal 0 0 1
    outer loop
      vertex 18.4205 -8.09474 2.2
      vertex 19.3303 -9.10518 2.2
      vertex 21.2331 -10.8316 2.2
    endloop
  endfacet
  facet normal 0 0 1
    outer loop
      vertex 21.2331 -10.8316 2.2
      vertex 19.4724 -10.4574 2.2
      vertex 19.997 -12.9726 2.2
    endloop
  endfacet
  facet normal 0 0 1
    outer loop
      vertex 19.4724 -10.4574 2.2
      vertex 18.7926 -11.6349 2.2
      vertex 19.997 -12.9726 2.2
    endloop
  endfacet
  facet normal 0 0 1
    outer loop
      vertex 19.997 -12.9726 2.2
      vertex 17.5505 -12.1879 2.2
      vertex 17.7386 -13.9781 2.2
    endloop
  endfacet
  facet normal 0 0 1
    outer loop
      vertex 17.7386 -13.9781 2.2
      vertex 16.2205 -11.9053 2.2
      vertex 15.3107 -10.8948 2.2
    endloop
  endfacet
  facet normal 0 0 1
    outer loop
      vertex 15.1686 -9.54259 2.2
      vertex 15.8484 -8.36508 2.2
      vertex 5.01591 3.64427 2.2
    endloop
  endfacet
  facet normal 0 0 1
    outer loop
      vertex -15.3107 -10.8948 2.2
      vertex -16.2205 -11.9053 2.2
      vertex -6.2 -13.9781 2.2
    endloop
  endfacet
  facet normal 0 0 1
    outer loop
      vertex -19.3303 -9.10518 2.2
      vertex -18.4205 -8.09474 2.2
      vertex -20.9747 -8.37305 2.2
    endloop
  endfacet
  facet normal 0 0 1
    outer loop
      vertex -15.1686 -9.54259 2.2
      vertex -15.3107 -10.8948 2.2
      vertex -6.2 -13.9781 2.2
    endloop
  endfacet
  facet normal 0 0 1
    outer loop
      vertex 1.77984 21.2931 2.2
      vertex 2.2 20 2.2
      vertex 3.23607 22.3511 2.2
    endloop
  endfacet
  facet normal -0.406737 -0.913545 0
    outer loop
      vertex -19.997 -12.9726 2.2
      vertex -19.997 -12.9726 -2.2
      vertex -17.7386 -13.9781 -2.2
    endloop
  endfacet
  facet normal -0.406737 -0.913545 0
    outer loop
      vertex -17.7386 -13.9781 2.2
      vertex -19.997 -12.9726 2.2
      vertex -17.7386 -13.9781 -2.2
    endloop
  endfacet
  facet normal -2.39274e-16 -1 0
    outer loop
      vertex -17.7386 -13.9781 2.2
      vertex -17.7386 -13.9781 -2.2
      vertex -6.2 -13.9781 -2.2
    endloop
  endfacet
  facet normal -2.39274e-16 -1 0
    outer loop
      vertex -6.2 -13.9781 2.2
      vertex -17.7386 -13.9781 2.2
      vertex -6.2 -13.9781 -2.2
    endloop
  endfacet
  facet normal 1 0 0
    outer loop
      vertex -6.2 0 -2.2
      vertex -6.2 0 2.2
      vertex -6.2 -13.9781 2.2
    endloop
  endfacet
  facet normal 1 0 0
    outer loop
      vertex -6.2 -13.9781 -2.2
      vertex -6.2 0 -2.2
      vertex -6.2 -13.9781 2.2
    endloop
  endfacet
  facet normal 0.951056 -0.309017 0
    outer loop
      vertex -5.01591 3.64427 -2.2
      vertex -5.01591 3.64427 2.2
      vertex -6.2 0 2.2
    endloop
  endfacet
  facet normal 0.951056 -0.309017 0
    outer loop
      vertex -6.2 0 -2.2
      vertex -5.01591 3.64427 -2.2
      vertex -6.2 0 2.2
    endloop
  endfacet
  facet normal 0.587785 -0.809017 0
    outer loop
      vertex -1.9159 5.89655 -2.2
      vertex -1.9159 5.89655 2.2
      vertex -5.01591 3.64427 2.2
    endloop
  endfacet
  facet normal 0.587785 -0.809017 0
    outer loop
      vertex -5.01591 3.64427 -2.2
      vertex -1.9159 5.89655 -2.2
      vertex -5.01591 3.64427 2.2
    endloop
  endfacet
  facet normal 0 -1 0
    outer loop
      vertex 1.9159 5.89655 -2.2
      vertex 1.9159 5.89655 2.2
      vertex -1.9159 5.89655 2.2
    endloop
  endfacet
  facet normal 0 -1 0
    outer loop
      vertex -1.9159 5.89655 -2.2
      vertex 1.9159 5.89655 -2.2
      vertex -1.9159 5.89655 2.2
    endloop
  endfacet
  facet normal -0.587785 -0.809017 0
    outer loop
      vertex 5.01591 3.64427 -2.2
      vertex 5.01591 3.64427 2.2
      vertex 1.9159 5.89655 2.2
    endloop
  endfacet
  facet normal -0.587785 -0.809017 0
    outer loop
      vertex 1.9159 5.89655 -2.2
      vertex 5.01591 3.64427 -2.2
      vertex 1.9159 5.89655 2.2
    endloop
  endfacet
  facet normal -0.951056 -0.309017 0
    outer loop
      vertex 6.2 0 2.2
      vertex 5.01591 3.64427 2.2
      vertex 6.2 0 -2.2
    endloop
  endfacet
  facet normal -0.951056 -0.309017 0
    outer loop
      vertex 6.2 0 -2.2
      vertex 5.01591 3.64427 2.2
      vertex 5.01591 3.64427 -2.2
    endloop
  endfacet
  facet normal -1 0 0
    outer loop
      vertex 6.2 0 2.2
      vertex 6.2 0 -2.2
      vertex 6.2 -13.9781 2.2
    endloop
  endfacet
  facet normal -1 0 0
    outer loop
      vertex 6.2 -13.9781 2.2
      vertex 6.2 0 -2.2
      vertex 6.2 -13.9781 -2.2
    endloop
  endfacet
  facet normal -2.39274e-16 -1 0
    outer loop
      vertex 6.2 -13.9781 2.2
      vertex 6.2 -13.9781 -2.2
      vertex 17.7386 -13.9781 -2.2
    endloop
  endfacet
  facet normal -2.39274e-16 -1 0
    outer loop
      vertex 17.7386 -13.9781 2.2
      vertex 6.2 -13.9781 2.2
      vertex 17.7386 -13.9781 -2.2
    endloop
  endfacet
  facet normal 0.406737 -0.913545 0
    outer loop
      vertex 17.7386 -13.9781 2.2
      vertex 17.7386 -13.9781 -2.2
      vertex 19.997 -12.9726 -2.2
    endloop
  endfacet
  facet normal 0.406737 -0.913545 0
    outer loop
      vertex 19.997 -12.9726 2.2
      vertex 17.7386 -13.9781 2.2
      vertex 19.997 -12.9726 -2.2
    endloop
  endfacet
  facet normal 0.866025 -0.5 0
    outer loop
      vertex 19.997 -12.9726 2.2
      vertex 19.997 -12.9726 -2.2
      vertex 21.2331 -10.8316 -2.2
    endloop
  endfacet
  facet normal 0.866025 -0.5 0
    outer loop
      vertex 21.2331 -10.8316 2.2
      vertex 19.997 -12.9726 2.2
      vertex 21.2331 -10.8316 -2.2
    endloop
  endfacet
  facet normal 0.994522 0.104528 0
    outer loop
      vertex 21.2331 -10.8316 -2.2
      vertex 20.9747 -8.37305 -2.2
      vertex 20.9747 -8.37305 2.2
    endloop
  endfacet
  facet normal 0.994522 0.104528 0
    outer loop
      vertex 21.2331 -10.8316 2.2
      vertex 21.2331 -10.8316 -2.2
      vertex 20.9747 -8.37305 2.2
    endloop
  endfacet
  facet normal 0.866025 0.5 0
    outer loop
      vertex 20.9747 -8.37305 -2.2
      vertex 3.23607 22.3511 -2.2
      vertex 3.23607 22.3511 2.2
    endloop
  endfacet
  facet normal 0.866025 0.5 0
    outer loop
      vertex 20.9747 -8.37305 2.2
      vertex 20.9747 -8.37305 -2.2
      vertex 3.23607 22.3511 2.2
    endloop
  endfacet
  facet normal 0.587785 0.809017 0
    outer loop
      vertex 1.23607 23.8042 -2.2
      vertex 1.23607 23.8042 2.2
      vertex 3.23607 22.3511 -2.2
    endloop
  endfacet
  facet normal 0.587785 0.809017 0
    outer loop
      vertex 3.23607 22.3511 -2.2
      vertex 1.23607 23.8042 2.2
      vertex 3.23607 22.3511 2.2
    endloop
  endfacet
  facet normal 0 1 0
    outer loop
      vertex -1.23607 23.8042 -2.2
      vertex -1.23607 23.8042 2.2
      vertex 1.23607 23.8042 -2.2
    endloop
  endfacet
  facet normal 0 1 0
    outer loop
      vertex 1.23607 23.8042 -2.2
      vertex -1.23607 23.8042 2.2
      vertex 1.23607 23.8042 2.2
    endloop
  endfacet
  facet normal -0.587785 0.809017 0
    outer loop
      vertex -3.23607 22.3511 -2.2
      vertex -3.23607 22.3511 2.2
      vertex -1.23607 23.8042 -2.2
    endloop
  endfacet
  facet normal -0.587785 0.809017 0
    outer loop
      vertex -1.23607 23.8042 -2.2
      vertex -3.23607 22.3511 2.2
      vertex -1.23607 23.8042 2.2
    endloop
  endfacet
  facet normal -0.866025 0.5 0
    outer loop
      vertex -20.9747 -8.37305 -2.2
      vertex -20.9747 -8.37305 2.2
      vertex -3.23607 22.3511 -2.2
    endloop
  endfacet
  facet normal -0.866025 0.5 0
    outer loop
      vertex -3.23607 22.3511 -2.2
      vertex -20.9747 -8.37305 2.2
      vertex -3.23607 22.3511 2.2
    endloop
  endfacet
  facet normal 0.994522 -0.104528 0
    outer loop
      vertex -19.3303 -9.10518 -2.2
      vertex -19.3303 -9.10518 2.2
      vertex -19.4724 -10.4574 2.2
    endloop
  endfacet
  facet normal 0.994522 -0.104528 0
    outer loop
      vertex -19.4724 -10.4574 -2.2
      vertex -19.3303 -9.10518 -2.2
      vertex -19.4724 -10.4574 2.2
    endloop
  endfacet
  facet normal 0.743145 -0.66913 0
    outer loop
      vertex -18.4205 -8.09474 -2.2
      vertex -18.4205 -8.09474 2.2
      vertex -19.3303 -9.10518 2.2
    endloop
  endfacet
  facet normal 0.743145 -0.66913 0
    outer loop
      vertex -19.3303 -9.10518 -2.2
      vertex -18.4205 -8.09474 -2.2
      vertex -19.3303 -9.10518 2.2
    endloop
  endfacet
  facet normal 0.207912 -0.978148 0
    outer loop
      vertex -17.0905 -7.81205 -2.2
      vertex -17.0905 -7.81205 2.2
      vertex -18.4205 -8.09474 2.2
    endloop
  endfacet
  facet normal 0.207912 -0.978148 0
    outer loop
      vertex -18.4205 -8.09474 -2.2
      vertex -17.0905 -7.81205 -2.2
      vertex -18.4205 -8.09474 2.2
    endloop
  endfacet
  facet normal -0.406737 -0.913545 0
    outer loop
      vertex -15.8484 -8.36508 -2.2
      vertex -15.8484 -8.36508 2.2
      vertex -17.0905 -7.81205 2.2
    endloop
  endfacet
  facet normal -0.406737 -0.913545 0
    outer loop
      vertex -17.0905 -7.81205 -2.2
      vertex -15.8484 -8.36508 -2.2
      vertex -17.0905 -7.81205 2.2
    endloop
  endfacet
  facet normal -0.866025 -0.5 0
    outer loop
      vertex -15.1686 -9.54259 2.2
      vertex -15.8484 -8.36508 2.2
      vertex -15.1686 -9.54259 -2.2
    endloop
  endfacet
  facet normal -0.866025 -0.5 0
    outer loop
      vertex -15.1686 -9.54259 -2.2
      vertex -15.8484 -8.36508 2.2
      vertex -15.8484 -8.36508 -2.2
    endloop
  endfacet
  facet normal -0.994522 0.104528 0
    outer loop
      vertex -15.1686 -9.54259 2.2
      vertex -15.1686 -9.54259 -2.2
      vertex -15.3107 -10.8948 2.2
    endloop
  endfacet
  facet normal -0.994522 0.104528 0
    outer loop
      vertex -15.3107 -10.8948 2.2
      vertex -15.1686 -9.54259 -2.2
      vertex -15.3107 -10.8948 -2.2
    endloop
  endfacet
  facet normal -0.743145 0.66913 0
    outer loop
      vertex -15.3107 -10.8948 2.2
      vertex -15.3107 -10.8948 -2.2
      vertex -16.2205 -11.9053 2.2
    endloop
  endfacet
  facet normal -0.743145 0.66913 0
    outer loop
      vertex -16.2205 -11.9053 2.2
      vertex -15.3107 -10.8948 -2.2
      vertex -16.2205 -11.9053 -2.2
    endloop
  endfacet
  facet normal -0.207912 0.978148 0
    outer loop
      vertex -16.2205 -11.9053 2.2
      vertex -16.2205 -11.9053 -2.2
      vertex -17.5505 -12.1879 2.2
    endloop
  endfacet
  facet normal -0.207912 0.978148 0
    outer loop
      vertex -17.5505 -12.1879 2.2
      vertex -16.2205 -11.9053 -2.2
      vertex -17.5505 -12.1879 -2.2
    endloop
  endfacet
  facet normal 0.406737 0.913545 0
    outer loop
      vertex -17.5505 -12.1879 2.2
      vertex -17.5505 -12.1879 -2.2
      vertex -18.7926 -11.6349 2.2
    endloop
  endfacet
  facet normal 0.406737 0.913545 0
    outer loop
      vertex -18.7926 -11.6349 2.2
      vertex -17.5505 -12.1879 -2.2
      vertex -18.7926 -11.6349 -2.2
    endloop
  endfacet
  facet normal 0.866025 0.5 0
    outer loop
      vertex -19.4724 -10.4574 2.2
      vertex -18.7926 -11.6349 2.2
      vertex -18.7926 -11.6349 -2.2
    endloop
  endfacet
  facet normal 0.866025 0.5 0
    outer loop
      vertex -19.4724 -10.4574 -2.2
      vertex -19.4724 -10.4574 2.2
      vertex -18.7926 -11.6349 -2.2
    endloop
  endfacet
  facet normal 0.951056 -0.309017 0
    outer loop
      vertex -1.77984 21.2931 -2.2
      vertex -1.77984 21.2931 2.2
      vertex -2.2 20 2.2
    endloop
  endfacet
  facet normal 0.951056 -0.309017 0
    outer loop
      vertex -2.2 20 -2.2
      vertex -1.77984 21.2931 -2.2
      vertex -2.2 20 2.2
    endloop
  endfacet
  facet normal 0.951056 0.309017 0
    outer loop
      vertex -2.2 20 2.2
      vertex -1.77984 18.7069 2.2
      vertex -1.77984 18.7069 -2.2
    endloop
  endfacet
  facet normal 0.951056 0.309017 0
    outer loop
      vertex -2.2 20 -2.2
      vertex -2.2 20 2.2
      vertex -1.77984 18.7069 -2.2
    endloop
  endfacet
  facet normal 0.587785 -0.809017 0
    outer loop
      vertex -0.679837 22.0923 -2.2
      vertex -0.679837 22.0923 2.2
      vertex -1.77984 21.2931 2.2
    endloop
  endfacet
  facet normal 0.587785 -0.809017 0
    outer loop
      vertex -1.77984 21.2931 -2.2
      vertex -0.679837 22.0923 -2.2
      vertex -1.77984 21.2931 2.2
    endloop
  endfacet
  facet normal 0 -1 0
    outer loop
      vertex 0.679837 22.0923 -2.2
      vertex 0.679837 22.0923 2.2
      vertex -0.679837 22.0923 2.2
    endloop
  endfacet
  facet normal 0 -1 0
    outer loop
      vertex -0.679837 22.0923 -2.2
      vertex 0.679837 22.0923 -2.2
      vertex -0.679837 22.0923 2.2
    endloop
  endfacet
  facet normal -0.587785 -0.809017 0
    outer loop
      vertex 1.77984 21.2931 -2.2
      vertex 1.77984 21.2931 2.2
      vertex 0.679837 22.0923 2.2
    endloop
  endfacet
  facet normal -0.587785 -0.809017 0
    outer loop
      vertex 0.679837 22.0923 -2.2
      vertex 1.77984 21.2931 -2.2
      vertex 0.679837 22.0923 2.2
    endloop
  endfacet
  facet normal -0.951056 -0.309017 0
    outer loop
      vertex 2.2 20 2.2
      vertex 1.77984 21.2931 2.2
      vertex 2.2 20 -2.2
    endloop
  endfacet
  facet normal -0.951056 -0.309017 0
    outer loop
      vertex 2.2 20 -2.2
      vertex 1.77984 21.2931 2.2
      vertex 1.77984 21.2931 -2.2
    endloop
  endfacet
  facet normal -0.951056 0.309017 0
    outer loop
      vertex 2.2 20 2.2
      vertex 2.2 20 -2.2
      vertex 1.77984 18.7069 2.2
    endloop
  endfacet
  facet normal -0.951056 0.309017 0
    outer loop
      vertex 1.77984 18.7069 2.2
      vertex 2.2 20 -2.2
      vertex 1.77984 18.7069 -2.2
    endloop
  endfacet
  facet normal -0.587785 0.809017 0
    outer loop
      vertex 1.77984 18.7069 2.2
      vertex 1.77984 18.7069 -2.2
      vertex 0.679837 17.9077 2.2
    endloop
  endfacet
  facet normal -0.587785 0.809017 0
    outer loop
      vertex 0.679837 17.9077 2.2
      vertex 1.77984 18.7069 -2.2
      vertex 0.679837 17.9077 -2.2
    endloop
  endfacet
  facet normal 0 1 0
    outer loop
      vertex 0.679837 17.9077 2.2
      vertex 0.679837 17.9077 -2.2
      vertex -0.679837 17.9077 2.2
    endloop
  endfacet
  facet normal 0 1 0
    outer loop
      vertex -0.679837 17.9077 2.2
      vertex 0.679837 17.9077 -2.2
      vertex -0.679837 17.9077 -2.2
    endloop
  endfacet
  facet normal 0.587785 0.809017 0
    outer loop
      vertex -0.679837 17.9077 2.2
      vertex -0.679837 17.9077 -2.2
      vertex -1.77984 18.7069 2.2
    endloop
  endfacet
  facet normal 0.587785 0.809017 0
    outer loop
      vertex -1.77984 18.7069 2.2
      vertex -0.679837 17.9077 -2.2
      vertex -1.77984 18.7069 -2.2
    endloop
  endfacet
  facet normal 0.866025 -0.5 0
    outer loop
      vertex 15.8484 -8.36508 -2.2
      vertex 15.8484 -8.36508 2.2
      vertex 15.1686 -9.54259 2.2
    endloop
  endfacet
  facet normal 0.866025 -0.5 0
    outer loop
      vertex 15.1686 -9.54259 -2.2
      vertex 15.8484 -8.36508 -2.2
      vertex 15.1686 -9.54259 2.2
    endloop
  endfacet
  facet normal 0.994522 0.104528 0
    outer loop
      vertex 15.1686 -9.54259 2.2
      vertex 15.3107 -10.8948 2.2
      vertex 15.3107 -10.8948 -2.2
    endloop
  endfacet
  facet normal 0.994522 0.104528 0
    outer loop
      vertex 15.1686 -9.54259 -2.2
      vertex 15.1686 -9.54259 2.2
      vertex 15.3107 -10.8948 -2.2
    endloop
  endfacet
  facet normal 0.406737 -0.913545 0
    outer loop
      vertex 17.0905 -7.81205 -2.2
      vertex 17.0905 -7.81205 2.2
      vertex 15.8484 -8.36508 2.2
    endloop
  endfacet
  facet normal 0.406737 -0.913545 0
    outer loop
      vertex 15.8484 -8.36508 -2.2
      vertex 17.0905 -7.81205 -2.2
      vertex 15.8484 -8.36508 2.2
    endloop
  endfacet
  facet normal -0.207912 -0.978148 0
    outer loop
      vertex 18.4205 -8.09474 -2.2
      vertex 18.4205 -8.09474 2.2
      vertex 17.0905 -7.81205 2.2
    endloop
  endfacet
  facet normal -0.207912 -0.978148 0
    outer loop
      vertex 17.0905 -7.81205 -2.2
      vertex 18.4205 -8.09474 -2.2
      vertex 17.0905 -7.81205 2.2
    endloop
  endfacet
  facet normal -0.743145 -0.66913 0
    outer loop
      vertex 19.3303 -9.10518 2.2
      vertex 18.4205 -8.09474 2.2
      vertex 19.3303 -9.10518 -2.2
    endloop
  endfacet
  facet normal -0.743145 -0.66913 0
    outer loop
      vertex 19.3303 -9.10518 -2.2
      vertex 18.4205 -8.09474 2.2
      vertex 18.4205 -8.09474 -2.2
    endloop
  endfacet
  facet normal -0.994522 -0.104528 0
    outer loop
      vertex 19.4724 -10.4574 2.2
      vertex 19.3303 -9.10518 2.2
      vertex 19.4724 -10.4574 -2.2
    endloop
  endfacet
  facet normal -0.994522 -0.104528 0
    outer loop
      vertex 19.4724 -10.4574 -2.2
      vertex 19.3303 -9.10518 2.2
      vertex 19.3303 -9.10518 -2.2
    endloop
  endfacet
  facet normal -0.866025 0.5 0
    outer loop
      vertex 19.4724 -10.4574 2.2
      vertex 19.4724 -10.4574 -2.2
      vertex 18.7926 -11.6349 2.2
    endloop
  endfacet
  facet normal -0.866025 0.5 0
    outer loop
      vertex 18.7926 -11.6349 2.2
      vertex 19.4724 -10.4574 -2.2
      vertex 18.7926 -11.6349 -2.2
    endloop
  endfacet
  facet normal -0.406737 0.913545 0
    outer loop
      vertex 18.7926 -11.6349 2.2
      vertex 18.7926 -11.6349 -2.2
      vertex 17.5505 -12.1879 2.2
    endloop
  endfacet
  facet normal -0.406737 0.913545 0
    outer loop
      vertex 17.5505 -12.1879 2.2
      vertex 18.7926 -11.6349 -2.2
      vertex 17.5505 -12.1879 -2.2
    endloop
  endfacet
  facet normal 0.207912 0.978148 0
    outer loop
      vertex 17.5505 -12.1879 2.2
      vertex 17.5505 -12.1879 -2.2
      vertex 16.2205 -11.9053 2.2
    endloop
  endfacet
  facet normal 0.207912 0.978148 0
    outer loop
      vertex 16.2205 -11.9053 2.2
      vertex 17.5505 -12.1879 -2.2
      vertex 16.2205 -11.9053 -2.2
    endloop
  endfacet
  facet normal 0.743145 0.66913 0
    outer loop
      vertex 15.3107 -10.8948 2.2
      vertex 16.2205 -11.9053 2.2
      vertex 16.2205 -11.9053 -2.2
    endloop
  endfacet
  facet normal 0.743145 0.66913 0
    outer loop
      vertex 15.3107 -10.8948 -2.2
      vertex 15.3107 -10.8948 2.2
      vertex 16.2205 -11.9053 -2.2
    endloop
  endfacet
endsolid OpenSCAD_Model
